<?xml version="1.0" encoding="utf-8"?>
<!-- Generator: Adobe Illustrator 16.0.0, SVG Export Plug-In . SVG Version: 6.00 Build 0)  -->
<!DOCTYPE svg PUBLIC "-//W3C//DTD SVG 1.1//EN" "http://www.w3.org/Graphics/SVG/1.1/DTD/svg11.dtd">
<svg version="1.1" id="Layer_1" xmlns="http://www.w3.org/2000/svg" xmlns:xlink="http://www.w3.org/1999/xlink" x="0px" y="0px"
	 width="1488.473px" height="615.969px" viewBox="0 0 1488.473 615.969" enable-background="new 0 0 1488.473 615.969"
	 xml:space="preserve">
<g transform="translate(22.5000185, 22.5000185) ">
	<polygon fill="none" stroke="#000000" stroke-width="0.25" points="-4.5,-4.5 24.215,-4.5 24.215,3.72 51.91,3.72 51.91,-4.5 
		69.427,-4.5 69.427,3.72 85.926,3.72 85.926,-4.5 103.443,-4.5 103.443,3.72 119.941,3.72 119.941,-4.5 137.459,-4.5 137.459,3.72 
		153.957,3.72 153.957,-4.5 171.474,-4.5 171.474,3.72 187.972,3.72 187.972,-4.5 205.491,-4.5 205.491,3.72 221.988,3.72 
		221.988,-4.5 239.507,-4.5 239.507,3.72 256.004,3.72 256.004,-4.5 273.522,-4.5 273.522,3.72 290.019,3.72 290.019,-4.5 
		307.538,-4.5 307.538,3.72 324.036,3.72 324.036,-4.5 341.553,-4.5 341.553,3.72 358.051,3.72 358.051,-4.5 375.569,-4.5 
		375.569,3.72 392.067,3.72 392.067,-4.5 409.586,-4.5 409.586,3.72 426.083,3.72 426.083,-4.5 443.601,-4.5 443.601,3.72 
		460.098,3.72 460.098,-4.5 477.617,-4.5 477.617,3.72 494.114,3.72 494.114,-4.5 511.633,-4.5 511.633,3.72 539.327,3.72 
		539.327,-4.5 568.042,-4.5 568.042,25.633 559.821,25.633 559.821,54.744 568.042,54.744 568.042,72.262 559.821,72.262 
		559.821,88.76 568.042,88.76 568.042,106.278 559.821,106.278 559.821,122.775 568.042,122.775 568.042,140.294 559.821,140.294 
		559.821,156.792 568.042,156.792 568.042,174.309 559.821,174.309 559.821,190.807 568.042,190.807 568.042,208.325 
		559.821,208.325 559.821,237.437 568.042,237.437 568.042,267.569 539.327,267.569 539.327,259.348 511.633,259.348 
		511.633,267.569 494.114,267.569 494.114,259.348 477.617,259.348 477.617,267.569 460.098,267.569 460.098,259.348 
		443.601,259.348 443.601,267.569 426.083,267.569 426.083,259.348 409.586,259.348 409.586,267.569 392.067,267.569 
		392.067,259.348 375.569,259.348 375.569,267.569 358.051,267.569 358.051,259.348 341.553,259.348 341.553,267.569 
		324.036,267.569 324.036,259.348 307.538,259.348 307.538,267.569 290.019,267.569 290.019,259.348 273.522,259.348 
		273.522,267.569 256.004,267.569 256.004,259.348 239.507,259.348 239.507,267.569 221.988,267.569 221.988,259.348 
		205.491,259.348 205.491,267.569 187.972,267.569 187.972,259.348 171.474,259.348 171.474,267.569 153.957,267.569 
		153.957,259.348 137.459,259.348 137.459,267.569 119.941,267.569 119.941,259.348 103.443,259.348 103.443,267.569 
		85.926,267.569 85.926,259.348 69.427,259.348 69.427,267.569 51.91,267.569 51.91,259.348 24.215,259.348 24.215,267.569 
		-4.5,267.569 -4.5,237.437 3.72,237.437 3.72,208.325 -4.5,208.325 -4.5,190.807 3.72,190.807 3.72,174.309 -4.5,174.309 
		-4.5,156.792 3.72,156.792 3.72,140.294 -4.5,140.294 -4.5,122.775 3.72,122.775 3.72,106.278 -4.5,106.278 -4.5,88.76 3.72,88.76 
		3.72,72.262 -4.5,72.262 -4.5,54.744 3.72,54.744 3.72,25.633 -4.5,25.633 	"/>
</g>
<g transform="translate(738.1777723, 22.5000185) ">
	<polygon fill="none" stroke="#000000" stroke-width="0.25" points="-147.636,-4.5 -118.921,-4.5 -118.921,3.72 -91.226,3.72 
		-91.226,-4.5 -73.708,-4.5 -73.708,3.72 -57.21,3.72 -57.21,-4.5 -39.693,-4.5 -39.693,3.72 -23.195,3.72 -23.195,-4.5 
		-5.677,-4.5 -5.677,3.72 10.821,3.72 10.821,-4.5 28.339,-4.5 28.339,3.72 44.837,3.72 44.837,-4.5 62.355,-4.5 62.355,3.72 
		78.852,3.72 78.852,-4.5 96.371,-4.5 96.371,3.72 112.868,3.72 112.868,-4.5 130.386,-4.5 130.386,3.72 146.883,3.72 146.883,-4.5 
		164.402,-4.5 164.402,3.72 180.899,3.72 180.899,-4.5 198.418,-4.5 198.418,3.72 214.916,3.72 214.916,-4.5 232.433,-4.5 
		232.433,3.72 248.931,3.72 248.931,-4.5 266.449,-4.5 266.449,3.72 282.947,3.72 282.947,-4.5 300.466,-4.5 300.466,3.72 
		316.963,3.72 316.963,-4.5 334.481,-4.5 334.481,3.72 350.978,3.72 350.978,-4.5 368.497,-4.5 368.497,3.72 396.191,3.72 
		396.191,-4.5 424.906,-4.5 424.906,25.633 416.685,25.633 416.685,54.744 424.906,54.744 424.906,72.262 416.685,72.262 
		416.685,88.76 424.906,88.76 424.906,106.278 416.685,106.278 416.685,122.775 424.906,122.775 424.906,140.294 416.685,140.294 
		416.685,156.792 424.906,156.792 424.906,174.309 416.685,174.309 416.685,190.807 424.906,190.807 424.906,208.325 
		416.685,208.325 416.685,237.437 424.906,237.437 424.906,267.569 396.191,267.569 396.191,259.348 368.497,259.348 
		368.497,267.569 350.978,267.569 350.978,259.348 334.481,259.348 334.481,267.569 316.963,267.569 316.963,259.348 
		300.466,259.348 300.466,267.569 282.947,267.569 282.947,259.348 266.449,259.348 266.449,267.569 248.931,267.569 
		248.931,259.348 232.433,259.348 232.433,267.569 214.916,267.569 214.916,259.348 198.418,259.348 198.418,267.569 
		180.899,267.569 180.899,259.348 164.402,259.348 164.402,267.569 146.883,267.569 146.883,259.348 130.386,259.348 
		130.386,267.569 112.868,267.569 112.868,259.348 96.371,259.348 96.371,267.569 78.852,267.569 78.852,259.348 62.355,259.348 
		62.355,267.569 44.837,267.569 44.837,259.348 28.339,259.348 28.339,267.569 10.821,267.569 10.821,259.348 -5.677,259.348 
		-5.677,267.569 -23.195,267.569 -23.195,259.348 -39.693,259.348 -39.693,267.569 -57.21,267.569 -57.21,259.348 -73.708,259.348 
		-73.708,267.569 -91.226,267.569 -91.226,259.348 -118.921,259.348 -118.921,267.569 -147.636,267.569 -147.636,237.437 
		-139.415,237.437 -139.415,208.325 -147.636,208.325 -147.636,190.807 -139.415,190.807 -139.415,174.309 -147.636,174.309 
		-147.636,156.792 -139.415,156.792 -139.415,140.294 -147.636,140.294 -147.636,122.775 -139.415,122.775 -139.415,106.278 
		-147.636,106.278 -147.636,88.76 -139.415,88.76 -139.415,72.262 -147.636,72.262 -147.636,54.744 -139.415,54.744 
		-139.415,25.633 -147.636,25.633 	"/>
</g>
<g transform="translate(1453.8555261000001, 22.5000185) ">
	<polygon fill="none" stroke="#000000" stroke-width="0.25" points="-282.551,-4.5 -268.435,-4.5 -268.435,3.72 -247.118,3.72 
		-247.118,-4.5 -229.6,-4.5 -229.6,3.72 -213.103,3.72 -213.103,-4.5 -195.584,-4.5 -195.584,3.72 -179.087,3.72 -179.087,-4.5 
		-161.569,-4.5 -161.569,3.72 -145.071,3.72 -145.071,-4.5 -127.553,-4.5 -127.553,3.72 -111.055,3.72 -111.055,-4.5 -93.537,-4.5 
		-93.537,3.72 -77.039,3.72 -77.039,-4.5 -59.522,-4.5 -59.522,3.72 -43.024,3.72 -43.024,-4.5 -25.505,-4.5 -25.505,3.72 
		-4.189,3.72 -4.189,-4.5 9.927,-4.5 9.927,25.122 18.148,25.122 18.148,55.255 9.927,55.255 9.927,71.752 18.148,71.752 
		18.148,89.27 9.927,89.27 9.927,105.767 18.148,105.767 18.148,123.286 9.927,123.286 9.927,139.784 18.148,139.784 
		18.148,157.302 9.927,157.302 9.927,173.8 18.148,173.8 18.148,191.317 9.927,191.317 9.927,207.815 18.148,207.815 
		18.148,237.947 9.927,237.947 9.927,267.569 -4.189,267.569 -4.189,259.348 -25.505,259.348 -25.505,267.569 -43.024,267.569 
		-43.024,259.348 -59.522,259.348 -59.522,267.569 -77.039,267.569 -77.039,259.348 -93.537,259.348 -93.537,267.569 
		-111.055,267.569 -111.055,259.348 -127.553,259.348 -127.553,267.569 -145.071,267.569 -145.071,259.348 -161.569,259.348 
		-161.569,267.569 -179.087,267.569 -179.087,259.348 -195.584,259.348 -195.584,267.569 -213.103,267.569 -213.103,259.348 
		-229.6,259.348 -229.6,267.569 -247.118,267.569 -247.118,259.348 -268.435,259.348 -268.435,267.569 -282.551,267.569 
		-282.551,237.947 -290.772,237.947 -290.772,207.815 -282.551,207.815 -282.551,191.317 -290.772,191.317 -290.772,173.8 
		-282.551,173.8 -282.551,157.302 -290.772,157.302 -290.772,139.784 -282.551,139.784 -282.551,123.286 -290.772,123.286 
		-290.772,105.767 -282.551,105.767 -282.551,89.27 -290.772,89.27 -290.772,71.752 -282.551,71.752 -282.551,55.255 
		-290.772,55.255 -290.772,25.122 -282.551,25.122 	"/>
</g>
<g transform="translate(1453.8555261000001, 362.5869123) ">
	<polygon fill="none" stroke="#000000" stroke-width="0.25" points="-282.551,-72.518 -268.435,-72.518 -268.435,-64.297 
		-247.118,-64.297 -247.118,-72.518 -229.6,-72.518 -229.6,-64.297 -213.103,-64.297 -213.103,-72.518 -195.584,-72.518 
		-195.584,-64.297 -179.087,-64.297 -179.087,-72.518 -161.569,-72.518 -161.569,-64.297 -145.071,-64.297 -145.071,-72.518 
		-127.553,-72.518 -127.553,-64.297 -111.055,-64.297 -111.055,-72.518 -93.537,-72.518 -93.537,-64.297 -77.039,-64.297 
		-77.039,-72.518 -59.522,-72.518 -59.522,-64.297 -43.024,-64.297 -43.024,-72.518 -25.505,-72.518 -25.505,-64.297 
		-4.189,-64.297 -4.189,-72.518 9.927,-72.518 9.927,-42.896 18.148,-42.896 18.148,-12.763 9.927,-12.763 9.927,3.734 
		18.148,3.734 18.148,21.253 9.927,21.253 9.927,37.751 18.148,37.751 18.148,55.268 9.927,55.268 9.927,71.766 18.148,71.766 
		18.148,89.284 9.927,89.284 9.927,105.782 18.148,105.782 18.148,123.3 9.927,123.3 9.927,139.798 18.148,139.798 18.148,169.929 
		9.927,169.929 9.927,199.552 -4.189,199.552 -4.189,191.332 -25.505,191.332 -25.505,199.552 -43.024,199.552 -43.024,191.332 
		-59.522,191.332 -59.522,199.552 -77.039,199.552 -77.039,191.332 -93.537,191.332 -93.537,199.552 -111.055,199.552 
		-111.055,191.332 -127.553,191.332 -127.553,199.552 -145.071,199.552 -145.071,191.332 -161.569,191.332 -161.569,199.552 
		-179.087,199.552 -179.087,191.332 -195.584,191.332 -195.584,199.552 -213.103,199.552 -213.103,191.332 -229.6,191.332 
		-229.6,199.552 -247.118,199.552 -247.118,191.332 -268.435,191.332 -268.435,199.552 -282.551,199.552 -282.551,169.929 
		-290.772,169.929 -290.772,139.798 -282.551,139.798 -282.551,123.3 -290.772,123.3 -290.772,105.782 -282.551,105.782 
		-282.551,89.284 -290.772,89.284 -290.772,71.766 -282.551,71.766 -282.551,55.268 -290.772,55.268 -290.772,37.751 
		-282.551,37.751 -282.551,21.253 -290.772,21.253 -290.772,3.734 -282.551,3.734 -282.551,-12.763 -290.772,-12.763 
		-290.772,-42.896 -282.551,-42.896 	"/>
</g>
<g transform="translate(22.5000185, 362.5869123) ">
	<polygon fill="none" stroke="#000000" stroke-width="0.25" points="3.72,-64.297 23.705,-64.297 23.705,-72.518 52.42,-72.518 
		52.42,-64.297 68.918,-64.297 68.918,-72.518 86.435,-72.518 86.435,-64.297 102.933,-64.297 102.933,-72.518 120.451,-72.518 
		120.451,-64.297 136.949,-64.297 136.949,-72.518 154.467,-72.518 154.467,-64.297 170.965,-64.297 170.965,-72.518 
		188.483,-72.518 188.483,-64.297 204.98,-64.297 204.98,-72.518 222.499,-72.518 222.499,-64.297 238.996,-64.297 238.996,-72.518 
		256.514,-72.518 256.514,-64.297 273.011,-64.297 273.011,-72.518 290.53,-72.518 290.53,-64.297 307.027,-64.297 307.027,-72.518 
		324.546,-72.518 324.546,-64.297 341.044,-64.297 341.044,-72.518 358.561,-72.518 358.561,-64.297 375.059,-64.297 
		375.059,-72.518 392.577,-72.518 392.577,-64.297 409.075,-64.297 409.075,-72.518 426.593,-72.518 426.593,-64.297 
		443.091,-64.297 443.091,-72.518 460.609,-72.518 460.609,-64.297 477.106,-64.297 477.106,-72.518 494.625,-72.518 
		494.625,-64.297 511.122,-64.297 511.122,-72.518 539.838,-72.518 539.838,-64.297 559.821,-64.297 559.821,-50.691 
		568.042,-50.691 568.042,-28.354 559.821,-28.354 559.821,-11.856 568.042,-11.856 568.042,5.662 559.821,5.662 559.821,22.16 
		568.042,22.16 568.042,39.677 559.821,39.677 559.821,56.176 568.042,56.176 568.042,73.694 559.821,73.694 559.821,90.191 
		568.042,90.191 568.042,107.71 559.821,107.71 559.821,124.207 568.042,124.207 568.042,141.725 559.821,141.725 559.821,158.222 
		568.042,158.222 568.042,175.741 559.821,175.741 559.821,192.239 568.042,192.239 568.042,214.576 559.821,214.576 
		559.821,228.181 539.838,228.181 539.838,236.402 511.122,236.402 511.122,228.181 494.625,228.181 494.625,236.402 
		477.106,236.402 477.106,228.181 460.609,228.181 460.609,236.402 443.091,236.402 443.091,228.181 426.593,228.181 
		426.593,236.402 409.075,236.402 409.075,228.181 392.577,228.181 392.577,236.402 375.059,236.402 375.059,228.181 
		358.561,228.181 358.561,236.402 341.044,236.402 341.044,228.181 324.546,228.181 324.546,236.402 307.027,236.402 
		307.027,228.181 290.53,228.181 290.53,236.402 273.011,236.402 273.011,228.181 256.514,228.181 256.514,236.402 238.996,236.402 
		238.996,228.181 222.499,228.181 222.499,236.402 204.98,236.402 204.98,228.181 188.483,228.181 188.483,236.402 170.965,236.402 
		170.965,228.181 154.467,228.181 154.467,236.402 136.949,236.402 136.949,228.181 120.451,228.181 120.451,236.402 
		102.933,236.402 102.933,228.181 86.435,228.181 86.435,236.402 68.918,236.402 68.918,228.181 52.42,228.181 52.42,236.402 
		23.705,236.402 23.705,228.181 3.72,228.181 3.72,214.576 -4.5,214.576 -4.5,192.239 3.72,192.239 3.72,175.741 -4.5,175.741 
		-4.5,158.222 3.72,158.222 3.72,141.725 -4.5,141.725 -4.5,124.207 3.72,124.207 3.72,107.71 -4.5,107.71 -4.5,90.191 3.72,90.191 
		3.72,73.694 -4.5,73.694 -4.5,56.176 3.72,56.176 3.72,39.677 -4.5,39.677 -4.5,22.16 3.72,22.16 3.72,5.662 -4.5,5.662 
		-4.5,-11.856 3.72,-11.856 3.72,-28.354 -4.5,-28.354 -4.5,-50.691 3.72,-50.691 	"/>
</g>
<g transform="translate(738.1777723, 362.5869123) ">
	<polygon fill="none" stroke="#000000" stroke-width="0.25" points="-139.415,-64.297 -119.431,-64.297 -119.431,-72.518 
		-90.716,-72.518 -90.716,-64.297 -74.218,-64.297 -74.218,-72.518 -56.701,-72.518 -56.701,-64.297 -40.202,-64.297 
		-40.202,-72.518 -22.685,-72.518 -22.685,-64.297 -6.187,-64.297 -6.187,-72.518 11.331,-72.518 11.331,-64.297 27.829,-64.297 
		27.829,-72.518 45.346,-72.518 45.346,-64.297 61.844,-64.297 61.844,-72.518 79.363,-72.518 79.363,-64.297 95.86,-64.297 
		95.86,-72.518 113.379,-72.518 113.379,-64.297 129.876,-64.297 129.876,-72.518 147.394,-72.518 147.394,-64.297 163.891,-64.297 
		163.891,-72.518 181.41,-72.518 181.41,-64.297 197.908,-64.297 197.908,-72.518 215.425,-72.518 215.425,-64.297 231.924,-64.297 
		231.924,-72.518 249.441,-72.518 249.441,-64.297 265.939,-64.297 265.939,-72.518 283.457,-72.518 283.457,-64.297 
		299.955,-64.297 299.955,-72.518 317.473,-72.518 317.473,-64.297 333.97,-64.297 333.97,-72.518 351.489,-72.518 351.489,-64.297 
		367.986,-64.297 367.986,-72.518 396.701,-72.518 396.701,-64.297 416.685,-64.297 416.685,-50.691 424.906,-50.691 
		424.906,-28.354 416.685,-28.354 416.685,-11.856 424.906,-11.856 424.906,5.662 416.685,5.662 416.685,22.16 424.906,22.16 
		424.906,39.677 416.685,39.677 416.685,56.176 424.906,56.176 424.906,73.694 416.685,73.694 416.685,90.191 424.906,90.191 
		424.906,107.71 416.685,107.71 416.685,124.207 424.906,124.207 424.906,141.725 416.685,141.725 416.685,158.222 424.906,158.222 
		424.906,175.741 416.685,175.741 416.685,192.239 424.906,192.239 424.906,214.576 416.685,214.576 416.685,228.181 
		396.701,228.181 396.701,236.402 367.986,236.402 367.986,228.181 351.489,228.181 351.489,236.402 333.97,236.402 333.97,228.181 
		317.473,228.181 317.473,236.402 299.955,236.402 299.955,228.181 283.457,228.181 283.457,236.402 265.939,236.402 
		265.939,228.181 249.441,228.181 249.441,236.402 231.924,236.402 231.924,228.181 215.425,228.181 215.425,236.402 
		197.908,236.402 197.908,228.181 181.41,228.181 181.41,236.402 163.891,236.402 163.891,228.181 147.394,228.181 147.394,236.402 
		129.876,236.402 129.876,228.181 113.379,228.181 113.379,236.402 95.86,236.402 95.86,228.181 79.363,228.181 79.363,236.402 
		61.844,236.402 61.844,228.181 45.346,228.181 45.346,236.402 27.829,236.402 27.829,228.181 11.331,228.181 11.331,236.402 
		-6.187,236.402 -6.187,228.181 -22.685,228.181 -22.685,236.402 -40.202,236.402 -40.202,228.181 -56.701,228.181 -56.701,236.402 
		-74.218,236.402 -74.218,228.181 -90.716,228.181 -90.716,236.402 -119.431,236.402 -119.431,228.181 -139.415,228.181 
		-139.415,214.576 -147.636,214.576 -147.636,192.239 -139.415,192.239 -139.415,175.741 -147.636,175.741 -147.636,158.222 
		-139.415,158.222 -139.415,141.725 -147.636,141.725 -147.636,124.207 -139.415,124.207 -139.415,107.71 -147.636,107.71 
		-147.636,90.191 -139.415,90.191 -139.415,73.694 -147.636,73.694 -147.636,56.176 -139.415,56.176 -139.415,39.677 
		-147.636,39.677 -147.636,22.16 -139.415,22.16 -139.415,5.662 -147.636,5.662 -147.636,-11.856 -139.415,-11.856 
		-139.415,-28.354 -147.636,-28.354 -147.636,-50.691 -139.415,-50.691 	"/>
</g>
<g>
	<path fill="none" stroke="#0000FF" stroke-width="0.25" d="M950.262,368.318l0.147,0.096c0.039,0.031,0.062,0.067,0.07,0.111
		l0.006,0.03c-0.103,0.383-0.237,0.646-0.405,0.789c-0.167,0.146-0.375,0.217-0.625,0.217c-0.253,0-0.472-0.069-0.654-0.209
		c-0.182-0.141-0.349-0.387-0.499-0.737c-0.185,0.325-0.444,0.571-0.78,0.737c-0.335,0.164-0.746,0.248-1.23,0.248
		c-0.446,0-0.776-0.094-0.986-0.28c-0.211-0.188-0.315-0.433-0.315-0.738c0-0.142,0.03-0.285,0.094-0.433
		c0.062-0.146,0.163-0.29,0.304-0.436c0.139-0.143,0.363-0.301,0.673-0.473c0.048-0.027,0.211-0.101,0.49-0.222l1.604-0.645
		c0.015-0.162,0.021-0.328,0.021-0.496c0-0.58-0.07-0.975-0.213-1.186c-0.086-0.13-0.236-0.193-0.451-0.193
		s-0.412,0.041-0.593,0.123c-0.182,0.08-0.312,0.186-0.395,0.313c-0.06,0.097-0.11,0.273-0.153,0.535
		c-0.03,0.189-0.06,0.299-0.084,0.33c-0.064,0.08-0.183,0.154-0.353,0.221c-0.17,0.068-0.284,0.115-0.344,0.146
		c-0.232,0.111-0.418,0.168-0.555,0.168c-0.062-0.053-0.092-0.125-0.092-0.221c0-0.244,0.053-0.455,0.155-0.631
		c0.154-0.25,0.388-0.49,0.699-0.726c0.312-0.234,0.603-0.399,0.873-0.494c0.37-0.121,0.821-0.18,1.354-0.18
		c0.345,0,0.641,0.062,0.888,0.188c0.248,0.128,0.42,0.314,0.516,0.564c0.098,0.248,0.146,0.697,0.146,1.348l-0.014,1.062
		l0.014,0.781v0.198c0,0.181,0.023,0.306,0.072,0.371c0.049,0.066,0.11,0.101,0.188,0.101c0.047,0,0.087-0.015,0.12-0.039
		l0.192-0.304L950.262,368.318z M948.147,366.822c-0.244,0.082-0.521,0.219-0.827,0.409c-0.309,0.191-0.521,0.384-0.643,0.576
		c-0.086,0.144-0.129,0.316-0.129,0.523c0,0.184,0.056,0.336,0.167,0.457c0.112,0.119,0.241,0.18,0.387,0.18
		c0.241,0,0.445-0.067,0.613-0.205c0.228-0.186,0.361-0.332,0.399-0.44c0.037-0.111,0.058-0.422,0.058-0.933
		C948.173,367.201,948.165,367.01,948.147,366.822z M946.704,362.329c0-0.297,0.103-0.551,0.309-0.762
		c0.207-0.212,0.458-0.316,0.754-0.316c0.302,0,0.558,0.104,0.766,0.312c0.208,0.209,0.312,0.462,0.312,0.759
		s-0.104,0.551-0.312,0.762s-0.464,0.313-0.766,0.313c-0.286,0-0.536-0.104-0.747-0.317
		C946.808,362.867,946.704,362.617,946.704,362.329z M947.766,362.895c0.164,0,0.304-0.057,0.416-0.17
		c0.114-0.112,0.172-0.248,0.172-0.405c0-0.158-0.058-0.296-0.172-0.408c-0.112-0.113-0.248-0.17-0.401-0.17
		c-0.164,0-0.304,0.057-0.416,0.166c-0.113,0.11-0.171,0.248-0.171,0.412c0,0.157,0.056,0.293,0.167,0.405
		C947.472,362.839,947.609,362.895,947.766,362.895z"/>
	<path fill="none" stroke="#0000FF" stroke-width="0.25" d="M950.544,369.204c0.057-0.049,0.129-0.084,0.22-0.107
		c0.22-0.047,0.428-0.133,0.626-0.258c0.038-0.102,0.058-0.449,0.058-1.041c0-1.086-0.023-1.82-0.07-2.201
		c-0.009-0.067-0.043-0.129-0.104-0.182c-0.106-0.055-0.254-0.104-0.438-0.146c-0.086-0.021-0.139-0.069-0.155-0.143l-0.019-0.238
		c0.316-0.043,0.604-0.151,0.862-0.326c0.259-0.174,0.451-0.352,0.58-0.53c0.068-0.101,0.129-0.175,0.182-0.228l0.451-0.012
		c0.021,0.098,0.031,0.18,0.031,0.244c0,0.047-0.002,0.104-0.006,0.174c-0.005,0.15-0.007,0.275-0.007,0.375
		c0,0.047,0.002,0.225,0.007,0.535c0.176-0.301,0.305-0.504,0.387-0.607c0.038-0.047,0.152-0.151,0.343-0.313
		c0.146-0.107,0.311-0.162,0.495-0.162c0.229,0,0.427,0.078,0.594,0.231c0.167,0.154,0.251,0.334,0.251,0.535
		s-0.062,0.383-0.189,0.545c-0.127,0.16-0.296,0.242-0.506,0.242c-0.186,0-0.379-0.078-0.58-0.231
		c-0.121-0.097-0.218-0.144-0.291-0.144l-0.045,0.008c-0.09,0.029-0.172,0.111-0.245,0.244c-0.12,0.213-0.181,0.437-0.181,0.668
		l0.014,0.172c0.018,0.318,0.029,1.062,0.038,2.23c0.013,0.106,0.054,0.215,0.122,0.32c0.078,0.061,0.156,0.104,0.236,0.129
		c0.079,0.024,0.218,0.047,0.416,0.063c0.196,0.019,0.316,0.045,0.359,0.082s0.064,0.099,0.064,0.181
		c0,0.049-0.013,0.11-0.038,0.188h-0.606l-1.23-0.057c-0.311,0-0.591,0.012-0.845,0.037h-0.109c-0.03,0-0.253,0.012-0.671,0.032
		c-0.013-0.069-0.021-0.125-0.021-0.16C950.523,369.32,950.533,369.27,950.544,369.204z"/>
</g>
<circle fill="none" stroke="#69BC45" stroke-width="0.25" stroke-miterlimit="10" cx="1083.626" cy="433.744" r="43.938"/>
<rect x="675.403" y="348.706" fill="none" stroke="#69BC45" stroke-width="0.25" stroke-miterlimit="10" width="30.936" height="170.078"/>
<rect x="710.799" y="424.759" fill="none" stroke="#69BC45" stroke-width="0.25" stroke-miterlimit="10" width="101.938" height="17.973"/>
<circle fill="none" stroke="#69BC45" stroke-width="0.25" stroke-miterlimit="10" cx="1122.801" cy="365.236" r="7.087"/>
<g>
	<path fill="none" stroke="#0000FF" stroke-width="0.25" d="M990.374,552.606c0.211,0.119,0.369,0.197,0.475,0.238
		c0.305,0.131,0.548,0.297,0.732,0.494c-0.356,1.318-1.22,2.459-2.592,3.422s-3.106,1.445-5.203,1.445
		c-1.319,0-2.625-0.277-3.918-0.832c-1.292-0.553-2.321-1.285-3.086-2.195c-0.595-0.699-1.039-1.557-1.336-2.572
		c-0.298-1.015-0.445-1.879-0.445-2.592c0-0.856,0.185-1.83,0.555-2.918c0.369-1.088,0.989-2.112,1.859-3.076
		c0.871-0.963,1.969-1.729,3.294-2.295c1.326-0.567,2.818-0.852,4.48-0.852c2.282,0,3.871,0.357,4.77,1.068
		c0.896,0.713,1.345,1.426,1.345,2.137c0,0.699-0.182,1.25-0.544,1.652c-0.362,0.401-0.86,0.604-1.493,0.604
		c-0.541,0-1.039-0.178-1.494-0.535c-0.455-0.354-0.834-0.955-1.138-1.799c-0.237-0.607-0.541-1.049-0.91-1.326
		c-0.369-0.264-0.812-0.396-1.325-0.396c-1.239,0-2.348,0.53-3.323,1.594c-0.977,1.062-1.464,2.51-1.464,4.342
		c0,2.203,0.597,3.955,1.79,5.254s2.549,1.949,4.065,1.949c0.752,0,1.392-0.086,1.919-0.258c0.329-0.119,0.778-0.377,1.346-0.771
		c0.146-0.104,0.418-0.389,0.82-0.852C989.955,553.076,990.228,552.764,990.374,552.606z"/>
	<path fill="none" stroke="#0000FF" stroke-width="0.25" d="M1008.57,543.346c0.846,0.818,1.476,1.758,1.892,2.82
		c0.416,1.062,0.624,2.061,0.624,2.998c0,1.768-0.271,3.19-0.812,4.272c-0.817,1.636-1.921,2.843-3.308,3.619
		c-1.387,0.779-2.997,1.168-4.832,1.168c-2.061,0-3.807-0.461-5.239-1.385c-1.432-0.924-2.455-1.973-3.069-3.146
		c-0.613-1.175-0.921-2.631-0.921-4.371c0-0.885,0.146-1.771,0.436-2.662c0.291-0.891,0.69-1.664,1.198-2.324
		c0.509-0.66,1.065-1.213,1.675-1.662c0.884-0.633,1.771-1.084,2.663-1.354s1.971-0.406,3.238-0.406
		C1004.872,540.913,1007.025,541.725,1008.57,543.346z M997.75,550.184c0.119,1.638,0.204,2.582,0.257,2.832
		c0.172,0.886,0.442,1.646,0.812,2.279c0.25,0.408,0.666,0.771,1.245,1.09c0.581,0.316,1.273,0.476,2.078,0.476
		c0.962,0,1.773-0.308,2.435-0.923c0.659-0.612,1.134-1.573,1.424-2.883c0.185-0.856,0.277-2.264,0.277-4.219
		c0-2.404-0.396-4.104-1.188-5.102c-0.791-0.998-1.833-1.496-3.126-1.496c-1.016,0-1.856,0.285-2.521,0.852
		c-0.666,0.568-1.132,1.406-1.396,2.519C997.875,546.322,997.777,547.846,997.75,550.184z"/>
	<path fill="none" stroke="#0000FF" stroke-width="0.25" d="M1034.664,541.824h1.146c-0.078,2.086-0.624,3.674-1.633,4.77
		c-1.009,1.094-2.245,1.642-3.709,1.642c-0.699,0-1.438-0.111-2.216-0.336c-0.779-0.226-2.513-0.902-5.204-2.037
		c-1.926-0.806-3.311-1.207-4.154-1.207c-0.924,0-1.688,0.28-2.295,0.84c-0.606,0.562-1.01,1.461-1.207,2.701h-1.146
		c0.104-2.177,0.646-3.785,1.622-4.826c0.976-1.043,2.148-1.564,3.521-1.564c0.713,0,1.405,0.095,2.078,0.277
		c1.318,0.369,3.053,1.02,5.203,1.949c2.149,0.93,3.646,1.395,4.491,1.395c0.937,0,1.721-0.307,2.354-0.92
		C1034.15,543.891,1034.532,542.999,1034.664,541.824z"/>
	<path fill="none" stroke="#0000FF" stroke-width="0.25" d="M1038.676,542.766c1.557-0.658,2.682-1.303,3.374-1.936
		s1.435-1.66,2.226-3.082h1.107c0.119,0.342,0.179,0.705,0.179,1.088c0,0.686-0.007,1.221-0.021,1.602l-0.059,1.169
		c0,0.065,0.006,0.217,0.02,0.454l0.455,0.021c0.064,0,0.686-0.025,1.859-0.078c0.093,0,0.587-0.014,1.483-0.041
		c0.079,0.354,0.118,0.666,0.118,0.941c0,0.301-0.046,0.651-0.139,1.059c-0.436,0.078-0.766,0.117-0.989,0.117
		c-0.105,0-0.316-0.025-0.633-0.078h-1.028l-0.355-0.02l-0.95,0.059l-0.039,7.559c-0.015,1.464,0.017,2.378,0.089,2.74
		c0.072,0.361,0.229,0.709,0.465,1.037c0.304,0.146,0.641,0.219,1.009,0.219c0.356,0,0.62-0.032,0.792-0.1
		c0.172-0.066,0.461-0.256,0.87-0.572c0.079-0.065,0.205-0.158,0.376-0.276c0.316,0.25,0.574,0.502,0.771,0.752l0.079,0.235
		c-0.462,0.726-1.111,1.295-1.948,1.711c-0.838,0.416-1.731,0.623-2.682,0.623c-1.227,0-2.223-0.389-2.987-1.164
		c-0.766-0.776-1.147-1.981-1.147-3.616l0.079-3.478v-5.631l-0.613-0.039l-1.424,0.039l-0.258-0.098
		c-0.079-0.117-0.118-0.229-0.118-0.334C1038.636,543.57,1038.65,543.277,1038.676,542.766z"/>
	<path fill="none" stroke="#0000FF" stroke-width="0.25" d="M1049.791,557.77l-0.039-1.284l2.235-0.298
		c0.329-0.094,0.558-0.229,0.683-0.405s0.188-0.576,0.188-1.197v-0.217c0-0.158,0.011-0.445,0.029-0.861
		c0.02-0.416,0.029-0.781,0.029-1.098c0-0.25-0.02-0.732-0.059-1.445l0.028-0.988l-0.028-0.93l0.059-3.225
		c0-0.41-0.04-0.832-0.119-1.269c-0.146-0.197-0.412-0.369-0.797-0.514s-1.056-0.25-2.012-0.316v-1.106
		c1.357-0.08,2.552-0.363,3.581-0.853c0.698-0.315,1.457-0.877,2.274-1.682h1.325c0.053,1.635,0.079,3.76,0.079,6.371l-0.139,8.072
		c0,0.553,0.025,1.055,0.078,1.504c0.409,0.145,1.075,0.289,2,0.434c0.354,0.053,0.64,0.119,0.851,0.199l-0.04,1.088
		c-0.355,0.014-0.619,0.021-0.79,0.021c-0.197,0-0.5-0.015-0.908-0.039c-1.343-0.066-3.14-0.101-5.391-0.101
		c-0.646,0-1.271,0.023-1.876,0.07C1050.429,557.747,1050.014,557.77,1049.791,557.77z M1052.561,534.167
		c0-0.711,0.23-1.295,0.692-1.75c0.461-0.455,1.055-0.684,1.78-0.684c0.777,0,1.425,0.241,1.938,0.723
		c0.516,0.481,0.772,1.025,0.772,1.633c0,0.447-0.104,0.896-0.308,1.344c-0.204,0.449-0.527,0.81-0.97,1.08
		c-0.441,0.271-0.894,0.404-1.354,0.404c-0.634,0-1.218-0.271-1.751-0.811C1052.827,535.565,1052.561,534.919,1052.561,534.167z"/>
	<path fill="none" stroke="#0000FF" stroke-width="0.25" d="M1064.764,542.594c0.646-0.447,1.27-0.771,1.869-0.969
		c0.601-0.197,1.447-0.35,2.542-0.455h1.108c1.438,0,2.814,0.494,4.135,1.484l0.04-0.476l-0.021-1.326l0.079-2.116
		c0-2.229-0.171-3.642-0.514-4.234c-0.198-0.355-0.544-0.547-1.039-0.572c-0.494-0.026-0.894-0.112-1.197-0.258v-0.949
		c0.251-0.08,0.574-0.123,0.971-0.129c0.396-0.006,1.167-0.143,2.313-0.406l0.673-0.139l1.959-0.455
		c0.396-0.092,0.641-0.139,0.732-0.139c0.064,0,0.171,0.014,0.315,0.041c0.079,0.275,0.118,0.479,0.118,0.613l-0.02,0.297v0.354
		c0,0.369,0.02,1.353,0.06,2.947v1.068l0.021,0.573l-0.021,0.99l0.061,2.057l-0.04,1.207c-0.026,0.527-0.039,1.359-0.039,2.492
		c0,0.187,0.006,0.351,0.021,0.496v0.73c-0.015,0.211-0.021,0.37-0.021,0.475c0,0.199,0.021,0.482,0.059,0.852v1.088l-0.02,0.416
		c-0.026,0.384-0.039,0.91-0.039,1.582c0,0.688,0.013,1.308,0.039,1.859c0.013,0.225,0.02,0.43,0.02,0.615v1.481
		c0,0.476,0.015,1.043,0.04,1.701c0.237,0.146,0.817,0.252,1.741,0.316c0.29,0.014,0.547,0.047,0.771,0.1
		c0.064,0.197,0.099,0.344,0.099,0.437c0,0.118-0.046,0.297-0.139,0.532c-0.541,0.134-1.107,0.232-1.701,0.298
		c-1.809,0.225-3.094,0.541-3.858,0.95c-0.369,0.211-0.626,0.316-0.771,0.316c-0.146,0-0.311-0.014-0.494-0.041
		c0.013-0.238,0.02-0.392,0.02-0.457c0-0.904-0.02-1.482-0.06-1.734c-0.197,0.105-0.441,0.246-0.731,0.418
		c-0.884,0.533-1.688,0.902-2.414,1.109c-0.726,0.205-1.557,0.309-2.492,0.309c-1.662,0-2.987-0.315-3.978-0.948
		c-1.464-0.924-2.478-2.031-3.037-3.324s-0.841-2.711-0.841-4.254C1061.084,546.757,1062.31,544.481,1064.764,542.594z
		 M1070.857,555.673c0.277,0.027,0.516,0.039,0.714,0.039c0.435,0,0.899-0.09,1.395-0.271c0.495-0.18,1.02-0.444,1.573-0.797
		c0.013-0.434,0.02-0.705,0.02-0.811c0-4.182-0.06-6.699-0.178-7.557c-0.158-1.148-0.594-2.031-1.307-2.652
		c-0.712-0.619-1.576-0.93-2.592-0.93c-0.58,0-1.132,0.104-1.651,0.315c-0.521,0.211-0.946,0.515-1.276,0.908
		c-0.488,0.58-0.856,1.238-1.106,1.977c-0.345,1.027-0.516,1.988-0.516,2.884c0,2.146,0.455,3.791,1.365,4.93
		S1069.393,555.503,1070.857,555.673z"/>
	<path fill="none" stroke="#0000FF" stroke-width="0.25" d="M1099.205,554.052l0.455,0.297c0.119,0.092,0.19,0.203,0.218,0.336
		l0.021,0.099c-0.316,1.176-0.731,1.981-1.246,2.424c-0.516,0.443-1.153,0.664-1.918,0.664c-0.778,0-1.448-0.215-2.009-0.646
		c-0.561-0.428-1.071-1.184-1.532-2.264c-0.567,1.002-1.366,1.758-2.396,2.264c-1.028,0.509-2.289,0.763-3.779,0.763
		c-1.372,0-2.382-0.285-3.027-0.859c-0.646-0.574-0.97-1.33-0.97-2.266c0-0.437,0.097-0.877,0.287-1.326
		c0.19-0.447,0.501-0.894,0.931-1.336c0.428-0.441,1.116-0.926,2.066-1.453c0.146-0.08,0.646-0.303,1.505-0.672l4.926-1.979
		c0.04-0.502,0.06-1.01,0.06-1.522c0-1.781-0.218-2.994-0.652-3.642c-0.265-0.396-0.727-0.594-1.386-0.594
		c-0.658,0-1.266,0.125-1.819,0.375c-0.554,0.252-0.956,0.574-1.206,0.971c-0.187,0.289-0.344,0.839-0.477,1.642
		c-0.092,0.582-0.178,0.918-0.257,1.01c-0.198,0.25-0.558,0.479-1.078,0.682c-0.521,0.205-0.874,0.354-1.059,0.445
		c-0.712,0.344-1.279,0.517-1.701,0.517c-0.186-0.158-0.276-0.384-0.276-0.675c0-0.752,0.157-1.396,0.475-1.938
		c0.475-0.767,1.189-1.508,2.146-2.228c0.956-0.719,1.852-1.223,2.682-1.514c1.135-0.369,2.52-0.555,4.155-0.555
		c1.055,0,1.962,0.194,2.721,0.584c0.758,0.391,1.286,0.967,1.582,1.731c0.297,0.765,0.444,2.144,0.444,4.136l-0.04,3.264
		l0.04,2.395v0.613c0,0.555,0.075,0.934,0.225,1.137c0.148,0.205,0.341,0.308,0.573,0.308c0.144,0,0.267-0.039,0.37-0.117
		l0.594-0.932L1099.205,554.052z M1092.716,549.46c-0.752,0.252-1.6,0.67-2.542,1.258c-0.943,0.586-1.6,1.176-1.969,1.771
		c-0.266,0.436-0.396,0.971-0.396,1.604c0,0.566,0.172,1.035,0.515,1.404s0.739,0.555,1.188,0.555c0.738,0,1.365-0.211,1.88-0.633
		c0.698-0.568,1.107-1.021,1.228-1.354c0.118-0.339,0.178-1.289,0.178-2.859C1092.795,550.622,1092.768,550.042,1092.716,549.46z"/>
	<path fill="none" stroke="#0000FF" stroke-width="0.25" d="M1099.439,556.885c0.293-0.201,0.678-0.328,1.154-0.381
		c0.916-0.104,1.44-0.244,1.573-0.416c0.266-0.342,0.397-1.041,0.397-2.096v-5.574l-0.039-1.324v-3.992l-0.039-4.565v-0.791
		c0-1.08-0.088-1.877-0.26-2.392c-0.466-0.276-0.964-0.416-1.494-0.416c-0.319,0-0.618-0.032-0.897-0.098
		c-0.04-0.33-0.06-0.574-0.06-0.731c0-0.105,0.014-0.226,0.039-0.357c1.041-0.117,2.12-0.385,3.239-0.801s1.977-0.84,2.568-1.275
		l0.549-0.02c0.117,0,0.287,0.006,0.509,0.02c0.079,4.562,0.118,7.685,0.118,9.371c0,0.5-0.013,0.902-0.039,1.205v0.119l0.039,0.375
		v8.758l0.04,2.887v0.476c0,0.565,0.092,0.969,0.275,1.205c0.156,0.172,0.49,0.276,1.002,0.315c0.274,0.027,0.818,0.092,1.632,0.197
		c0.064,0.277,0.098,0.502,0.098,0.674c0,0.131-0.013,0.316-0.039,0.553l-1.562-0.069c-0.871-0.062-1.966-0.09-3.284-0.09
		l-0.732-0.019c-0.752,0-1.841,0.06-3.265,0.178h-1.444L1099.439,556.885z"/>
</g>
<g>
	<path fill="none" stroke="#0000FF" stroke-width="0.25" d="M673.861,556.988c0.147,0.082,0.261,0.139,0.336,0.166
		c0.214,0.094,0.387,0.211,0.517,0.35c-0.251,0.932-0.861,1.738-1.831,2.418c-0.969,0.68-2.193,1.021-3.675,1.021
		c-0.933,0-1.854-0.195-2.769-0.589c-0.912-0.391-1.64-0.907-2.181-1.551c-0.419-0.494-0.732-1.1-0.942-1.815
		c-0.209-0.72-0.314-1.328-0.314-1.832c0-0.605,0.131-1.293,0.392-2.062c0.262-0.77,0.699-1.494,1.313-2.174
		c0.615-0.68,1.391-1.221,2.327-1.621c0.936-0.399,1.991-0.602,3.165-0.602c1.612,0,2.733,0.252,3.369,0.756
		c0.633,0.502,0.948,1.006,0.948,1.51c0,0.492-0.128,0.883-0.384,1.166c-0.256,0.285-0.606,0.426-1.055,0.426
		c-0.382,0-0.733-0.125-1.057-0.377c-0.32-0.252-0.589-0.676-0.803-1.271c-0.168-0.428-0.383-0.74-0.644-0.938
		c-0.261-0.186-0.573-0.278-0.938-0.278c-0.876,0-1.657,0.375-2.348,1.125c-0.689,0.752-1.034,1.772-1.034,3.067
		c0,1.558,0.421,2.793,1.266,3.711c0.844,0.918,1.801,1.377,2.871,1.377c0.531,0,0.983-0.061,1.355-0.182
		c0.232-0.084,0.55-0.266,0.95-0.545c0.103-0.076,0.296-0.275,0.58-0.602C673.562,557.316,673.758,557.098,673.861,556.988z"/>
	<path fill="none" stroke="#0000FF" stroke-width="0.25" d="M675.255,549.327c0.104-0.037,0.187-0.064,0.252-0.084h4.165
		l0.308,0.026l0.027,0.937l-0.041,1.369l0.014,0.711l-0.014,2.106v1.438c0,0.938,0.051,1.68,0.152,2.219
		c0.141,0.41,0.365,0.719,0.679,0.928c0.312,0.211,0.692,0.314,1.139,0.314c0.419,0,0.76-0.041,1.021-0.125
		c0.261-0.084,0.562-0.242,0.9-0.475c0.342-0.232,0.559-0.4,0.649-0.503c0.271-0.299,0.457-0.571,0.56-0.823l0.099-3.476
		c0.019-0.362,0.027-0.659,0.027-0.893c0-0.242-0.007-0.547-0.021-0.914s-0.021-0.574-0.021-0.621l0.015-0.516l-0.027-0.308
		c-0.224-0.141-0.536-0.229-0.937-0.266l-0.938-0.07c-0.056-0.026-0.106-0.061-0.153-0.098c-0.036-0.187-0.057-0.326-0.057-0.42
		c0-0.111,0.014-0.271,0.043-0.476c0.308-0.047,0.574-0.069,0.799-0.069l2.157,0.026c0.579,0,1.289-0.008,2.13-0.026l0.029,1.047
		l-0.058,1.34l0.027,1.676l-0.014,2.4l-0.028,1.074l0.015,0.725c-0.036,0.484-0.056,0.76-0.056,0.824
		c0,0.231,0.041,0.404,0.126,0.518c0.084,0.111,0.162,0.166,0.236,0.166l1.286-0.041l0.168,0.027
		c0.027,0.326,0.042,0.512,0.042,0.559c0,0.066-0.015,0.168-0.042,0.31c-0.494,0.018-0.85,0.051-1.062,0.098
		c-0.998,0.224-2.088,0.555-3.271,0.992l-0.56-0.029l-0.014-2.276c-0.112,0.094-0.275,0.237-0.489,0.434
		c-0.818,0.727-1.522,1.219-2.109,1.475c-0.587,0.257-1.201,0.386-1.846,0.386c-0.765,0-1.426-0.158-1.984-0.476
		c-0.56-0.315-0.969-0.709-1.229-1.174c-0.195-0.361-0.326-0.883-0.392-1.562c-0.019-0.179-0.027-1.091-0.027-2.736l0.014-0.447
		c0.048-0.91,0.07-1.586,0.07-2.022c0-0.744-0.014-1.242-0.042-1.492c-0.01-0.121-0.056-0.262-0.14-0.42
		c-0.131-0.056-0.285-0.099-0.461-0.125c-0.599-0.103-0.971-0.201-1.119-0.293c-0.047-0.027-0.069-0.09-0.069-0.183
		c0-0.057,0.007-0.131,0.021-0.225C675.22,549.697,675.238,549.542,675.255,549.327z"/>
	<path fill="none" stroke="#0000FF" stroke-width="0.25" d="M690.235,559.928c0.12-0.104,0.279-0.184,0.476-0.229
		c0.475-0.104,0.928-0.289,1.355-0.56c0.084-0.223,0.125-0.977,0.125-2.26c0-2.354-0.052-3.943-0.152-4.773
		c-0.021-0.146-0.094-0.276-0.225-0.389c-0.232-0.121-0.551-0.229-0.949-0.322c-0.188-0.045-0.299-0.147-0.336-0.307l-0.042-0.518
		c0.688-0.093,1.312-0.328,1.873-0.705c0.559-0.377,0.978-0.763,1.257-1.154c0.148-0.213,0.28-0.377,0.392-0.488l0.979-0.026
		c0.047,0.213,0.069,0.391,0.069,0.528c0,0.104-0.005,0.229-0.015,0.379c-0.009,0.326-0.014,0.597-0.014,0.812
		c0,0.102,0.005,0.488,0.014,1.16c0.383-0.652,0.662-1.09,0.839-1.314c0.084-0.102,0.331-0.33,0.741-0.684
		c0.316-0.234,0.676-0.353,1.076-0.353c0.493,0,0.922,0.168,1.285,0.504c0.362,0.336,0.545,0.724,0.545,1.16
		c0,0.438-0.139,0.832-0.412,1.183c-0.275,0.35-0.642,0.522-1.098,0.522c-0.4,0-0.819-0.168-1.259-0.502
		c-0.26-0.205-0.471-0.309-0.628-0.309l-0.099,0.014c-0.195,0.064-0.373,0.242-0.531,0.529c-0.26,0.465-0.391,0.946-0.391,1.448
		l0.026,0.375c0.037,0.688,0.066,2.3,0.084,4.834c0.028,0.232,0.116,0.466,0.267,0.697c0.168,0.129,0.338,0.224,0.51,0.277
		c0.173,0.057,0.473,0.104,0.902,0.141c0.428,0.037,0.688,0.099,0.781,0.178c0.094,0.08,0.141,0.209,0.141,0.39
		c0,0.104-0.027,0.242-0.084,0.41h-1.313l-2.669-0.125c-0.671,0-1.281,0.028-1.83,0.084h-0.237c-0.066,0-0.552,0.022-1.454,0.069
		c-0.027-0.153-0.042-0.27-0.042-0.346C690.193,560.182,690.207,560.074,690.235,559.928z"/>
	<path fill="none" stroke="#0000FF" stroke-width="0.25" d="M700.307,559.928c0.121-0.104,0.28-0.184,0.478-0.229
		c0.475-0.104,0.927-0.289,1.354-0.56c0.084-0.223,0.125-0.977,0.125-2.26c0-2.354-0.051-3.943-0.152-4.773
		c-0.02-0.146-0.095-0.276-0.225-0.389c-0.231-0.121-0.551-0.229-0.95-0.322c-0.187-0.045-0.299-0.147-0.335-0.307l-0.043-0.518
		c0.689-0.093,1.314-0.328,1.873-0.705c0.56-0.377,0.979-0.763,1.258-1.154c0.149-0.213,0.279-0.377,0.392-0.488l0.979-0.026
		c0.047,0.213,0.07,0.391,0.07,0.528c0,0.104-0.004,0.229-0.014,0.379c-0.011,0.326-0.015,0.597-0.015,0.812
		c0,0.102,0.004,0.488,0.015,1.16c0.382-0.652,0.66-1.09,0.838-1.314c0.085-0.102,0.331-0.33,0.741-0.684
		c0.316-0.234,0.676-0.353,1.075-0.353c0.493,0,0.924,0.168,1.286,0.504c0.363,0.336,0.545,0.724,0.545,1.16
		c0,0.438-0.138,0.832-0.412,1.183c-0.274,0.35-0.641,0.522-1.098,0.522c-0.4,0-0.82-0.168-1.258-0.502
		c-0.261-0.205-0.471-0.309-0.629-0.309l-0.099,0.014c-0.194,0.064-0.373,0.242-0.53,0.529c-0.262,0.465-0.392,0.946-0.392,1.448
		l0.027,0.375c0.037,0.688,0.064,2.3,0.084,4.834c0.027,0.232,0.116,0.466,0.266,0.697c0.168,0.129,0.338,0.224,0.51,0.277
		c0.173,0.057,0.474,0.104,0.902,0.141c0.428,0.037,0.688,0.099,0.781,0.178c0.094,0.08,0.141,0.209,0.141,0.39
		c0,0.104-0.027,0.242-0.084,0.41h-1.313l-2.668-0.125c-0.673,0-1.282,0.028-1.831,0.084h-0.238c-0.065,0-0.55,0.022-1.454,0.069
		c-0.026-0.153-0.041-0.27-0.041-0.346C700.266,560.182,700.281,560.074,700.307,559.928z"/>
	<path fill="none" stroke="#0000FF" stroke-width="0.25" d="M710.369,553.218c0.242-0.793,0.457-1.32,0.643-1.58
		c0.521-0.766,1.078-1.362,1.67-1.791c0.594-0.43,1.126-0.715,1.603-0.854c0.613-0.178,1.112-0.269,1.495-0.269
		c0.876,0,1.584,0.068,2.124,0.203s0.991,0.328,1.354,0.58c0.522,0.363,0.941,0.73,1.258,1.104c0.317,0.371,0.576,0.809,0.775,1.312
		c0.201,0.502,0.311,1.111,0.329,1.828l-1.552-0.027c-0.429,0-1.369-0.039-2.822-0.12c-0.541-0.048-0.914-0.07-1.119-0.07
		c-0.064,0-0.568,0.01-1.509,0.026h-1.202c-0.02,0.132-0.027,0.244-0.027,0.339c0,0.493,0.062,1.016,0.183,1.562
		c0.12,0.545,0.302,1.027,0.545,1.443c0.241,0.416,0.542,0.772,0.9,1.069c0.358,0.3,0.729,0.517,1.11,0.646l0.811,0.268
		c0.719,0,1.198-0.022,1.439-0.069c0.447-0.095,0.842-0.211,1.182-0.357c0.34-0.143,0.752-0.389,1.236-0.732
		c0.336,0.242,0.615,0.462,0.839,0.656c-0.819,0.904-1.671,1.56-2.55,1.963c-0.881,0.406-1.867,0.609-2.957,0.609
		c-0.736,0-1.336-0.066-1.803-0.197c-0.623-0.168-1.188-0.424-1.691-0.77c-0.502-0.344-0.936-0.773-1.299-1.287
		c-0.363-0.512-0.634-1.039-0.811-1.58c-0.233-0.709-0.351-1.277-0.351-1.707C710.173,554.602,710.238,553.872,710.369,553.218z
		 M718.489,552.626c-0.011-0.523-0.112-1.025-0.309-1.502c-0.194-0.479-0.498-0.85-0.908-1.117c-0.409-0.266-0.823-0.4-1.243-0.4
		c-0.624,0-1.188,0.275-1.69,0.826c-0.503,0.549-0.787,1.295-0.853,2.236l3.186,0.027c0.205,0,0.494-0.015,0.867-0.043
		c0.27-0.025,0.461-0.037,0.572-0.037C718.196,552.617,718.322,552.62,718.489,552.626z"/>
	<path fill="none" stroke="#0000FF" stroke-width="0.25" d="M722.441,559.932c0.241-0.11,0.466-0.186,0.67-0.223
		c0.514-0.084,0.811-0.154,0.896-0.211c0.14-0.084,0.232-0.187,0.279-0.31c0.056-0.186,0.083-0.596,0.083-1.229v-1.217l0.016-0.994
		l-0.043-1.471v-0.882c0-0.588-0.047-1.067-0.14-1.44c-0.038-0.141-0.153-0.279-0.35-0.42c-0.262-0.187-0.704-0.369-1.328-0.545
		l-0.014-0.672c0.12-0.037,0.23-0.062,0.328-0.076s0.473-0.105,1.125-0.273c0.512-0.186,0.843-0.315,0.992-0.391
		c0.047-0.027,0.121-0.07,0.223-0.125c0.113-0.094,0.238-0.188,0.379-0.279c0.279-0.197,0.614-0.537,1.006-1.021l0.755-0.056
		l-0.027,1.578c-0.021,0.158-0.028,0.285-0.028,0.379c0,0.074,0.009,0.287,0.028,0.644c0.771-0.672,1.475-1.138,2.107-1.398
		c0.826-0.346,1.612-0.518,2.356-0.518c0.874,0,1.642,0.217,2.302,0.649c0.66,0.437,1.094,0.938,1.298,1.507
		c0.205,0.569,0.308,1.719,0.308,3.444l-0.057,4.564c0,0.215,0.037,0.393,0.112,0.531c0.093,0.063,0.351,0.129,0.769,0.196
		l0.686,0.134c0.084,0.118,0.125,0.266,0.125,0.438c0,0.111-0.004,0.262-0.014,0.455l-2.739-0.195l-0.812,0.027h-0.643l-1.845,0.125
		h-0.477c-0.009-0.117-0.014-0.205-0.014-0.271c0-0.161,0.01-0.338,0.028-0.526c0.131-0.027,0.456-0.074,0.979-0.142
		c0.14-0.018,0.293-0.051,0.461-0.098c0.187-0.074,0.293-0.148,0.32-0.223c0.075-0.16,0.112-0.463,0.112-0.91
		c0-0.783-0.005-1.387-0.015-1.807l0.015-1.623c0-1.968-0.126-3.195-0.376-3.681c-0.354-0.701-0.883-1.051-1.59-1.051
		c-0.521,0-1.06,0.135-1.616,0.4c-0.558,0.265-1.134,0.668-1.729,1.211l-0.028,0.235l0.028,0.881l-0.028,0.938l0.057,2.236
		l-0.027,0.35c0,1.519,0.062,2.375,0.183,2.57c0.123,0.196,0.588,0.414,1.396,0.653c0.027,0.158,0.043,0.275,0.043,0.351
		c0,0.11-0.033,0.285-0.1,0.518c-0.289,0.008-0.532,0.015-0.729,0.015c-0.194,0-0.504-0.031-0.924-0.095l-1.498-0.032
		c-0.748,0-1.826,0.032-3.235,0.098c-0.037-0.09-0.057-0.188-0.057-0.289C722.426,560.3,722.43,560.154,722.441,559.932z"/>
	<path fill="none" stroke="#0000FF" stroke-width="0.25" d="M737.784,550.034c1.1-0.465,1.894-0.92,2.384-1.367
		c0.488-0.445,1.012-1.172,1.572-2.176h0.78c0.085,0.242,0.127,0.498,0.127,0.768c0,0.484-0.005,0.863-0.015,1.133l-0.042,0.824
		c0,0.047,0.005,0.154,0.015,0.32l0.321,0.016c0.047,0,0.484-0.02,1.313-0.057c0.064,0,0.415-0.01,1.048-0.027
		c0.057,0.248,0.084,0.471,0.084,0.664c0,0.213-0.032,0.461-0.099,0.748c-0.307,0.055-0.54,0.084-0.698,0.084
		c-0.074,0-0.224-0.02-0.447-0.057H743.4l-0.251-0.015l-0.671,0.041l-0.026,5.341c-0.011,1.032,0.012,1.678,0.062,1.936
		c0.051,0.256,0.16,0.5,0.328,0.732c0.215,0.104,0.451,0.153,0.713,0.153c0.252,0,0.438-0.022,0.56-0.069
		c0.121-0.048,0.325-0.181,0.614-0.404c0.057-0.047,0.146-0.111,0.267-0.195c0.223,0.178,0.405,0.354,0.545,0.531l0.056,0.166
		c-0.326,0.514-0.785,0.916-1.376,1.209c-0.592,0.293-1.223,0.44-1.895,0.44c-0.865,0-1.569-0.274-2.11-0.823
		c-0.54-0.549-0.811-1.4-0.811-2.556l0.056-2.455v-3.977l-0.434-0.029l-1.006,0.029l-0.183-0.07
		c-0.056-0.084-0.083-0.162-0.083-0.235C737.756,550.602,737.764,550.395,737.784,550.034z"/>
	<path fill="none" stroke="#0000FF" stroke-width="0.25" d="M745.285,560.009c0.206-0.141,0.478-0.229,0.814-0.27
		c0.646-0.074,1.019-0.172,1.111-0.293c0.188-0.242,0.281-0.734,0.281-1.48v-3.938l-0.027-0.937v-2.82l-0.028-3.225v-0.559
		c0-0.765-0.062-1.328-0.183-1.689c-0.329-0.195-0.682-0.293-1.057-0.293c-0.226,0-0.437-0.023-0.635-0.07
		c-0.027-0.231-0.041-0.405-0.041-0.518c0-0.074,0.01-0.158,0.027-0.252c0.735-0.084,1.497-0.271,2.288-0.566
		c0.791-0.293,1.396-0.594,1.814-0.899l0.388-0.015c0.083,0,0.203,0.004,0.359,0.015c0.056,3.221,0.083,5.428,0.083,6.619
		c0,0.354-0.009,0.637-0.027,0.852v0.084l0.027,0.266v6.187l0.028,2.039v0.336c0,0.399,0.064,0.684,0.194,0.852
		c0.11,0.121,0.347,0.195,0.708,0.226c0.193,0.018,0.578,0.063,1.152,0.139c0.046,0.195,0.067,0.354,0.067,0.475
		c0,0.094-0.008,0.226-0.026,0.392l-1.104-0.05c-0.615-0.043-1.389-0.062-2.32-0.062l-0.518-0.014c-0.531,0-1.3,0.041-2.306,0.125
		h-1.021L745.285,560.009z"/>
	<path fill="none" stroke="#0000FF" stroke-width="0.25" d="M751.992,549.368c0.326-0.056,0.596-0.082,0.811-0.082
		c0.111,0,0.238,0.004,0.377,0.014c0.849,0.057,1.538,0.084,2.069,0.084h0.727l1.984-0.127c0.075,0.057,0.14,0.117,0.196,0.184
		c-0.028,0.408-0.053,0.671-0.07,0.781c-0.141,0.029-0.247,0.047-0.322,0.058c-0.214,0.026-0.372,0.053-0.475,0.075
		c-0.104,0.023-0.214,0.045-0.336,0.062c-0.14,0.039-0.22,0.104-0.236,0.197c0.055,0.223,0.111,0.41,0.167,0.559l0.671,1.373
		c0.531,1.307,1.076,2.512,1.635,3.613l0.783,1.608c0.057-0.11,0.414-1.03,1.076-2.758c0.791-2.045,1.221-3.197,1.285-3.459
		c0.037-0.141,0.057-0.262,0.057-0.365c0-0.092-0.026-0.245-0.084-0.461c-0.205-0.147-0.373-0.243-0.504-0.286
		c-0.13-0.041-0.433-0.091-0.908-0.146l-0.447-0.113l-0.041-0.19c-0.01-0.092-0.015-0.162-0.015-0.207
		c0-0.072,0.015-0.191,0.042-0.357c0.279-0.018,0.479-0.026,0.603-0.026l1.131,0.069l0.756,0.027c0.315,0,0.866-0.047,1.647-0.139
		c0.484-0.058,0.849-0.091,1.091-0.101c0.02,0.23,0.027,0.406,0.027,0.525c0,0.055-0.005,0.137-0.014,0.248
		c-0.168,0.082-0.354,0.147-0.56,0.192c-0.334,0.084-0.63,0.162-0.882,0.236c-0.133,0.111-0.223,0.205-0.268,0.279
		c-0.159,0.354-0.48,1.129-0.966,2.322l-1.009,2.698l-2.339,5.568l-1.61,3.693c-0.354,0.706-0.769,1.317-1.243,1.829
		c-0.177,0.197-0.382,0.347-0.614,0.447c-0.383,0.15-0.815,0.226-1.301,0.226c-0.047,0-0.303-0.033-0.769-0.099
		c-0.383-0.094-0.713-0.295-0.992-0.602c-0.196-0.224-0.293-0.461-0.293-0.713c0-0.513,0.219-0.988,0.656-1.427
		c0.392-0.241,0.681-0.362,0.866-0.362c0.419,0,0.908,0.219,1.468,0.658c0.261,0.213,0.471,0.319,0.63,0.319
		c0.157,0,0.282-0.088,0.377-0.266c0.811-1.574,1.332-2.691,1.563-3.354l-2.578-5.694c-0.966-2.285-1.705-3.886-2.216-4.802
		c-0.263-0.465-0.448-0.739-0.558-0.823c-0.107-0.084-0.273-0.158-0.5-0.226c-0.121-0.026-0.265-0.084-0.424-0.168
		C752.072,549.76,752.029,549.559,751.992,549.368z"/>
	<path fill="none" stroke="#0000FF" stroke-width="0.25" d="M766.174,556.945c0.587,0,1.083,0.186,1.488,0.557
		c0.404,0.371,0.607,0.795,0.607,1.268c0,0.623-0.127,1.089-0.378,1.394c-0.446,0.529-0.986,0.795-1.621,0.795
		c-0.597,0-1.085-0.191-1.468-0.572c-0.383-0.379-0.572-0.863-0.572-1.447c0-0.381,0.094-0.725,0.279-1.03
		c0.139-0.242,0.42-0.502,0.838-0.779C765.516,557.005,765.792,556.945,766.174,556.945z"/>
	<path fill="none" stroke="#0000FF" stroke-width="0.25" d="M769.777,559.932c0.241-0.11,0.466-0.186,0.671-0.223
		c0.513-0.084,0.811-0.154,0.895-0.211c0.141-0.084,0.232-0.187,0.279-0.31c0.057-0.186,0.084-0.596,0.084-1.229v-1.217l0.015-0.994
		l-0.042-1.471v-0.882c0-0.588-0.048-1.067-0.141-1.44c-0.037-0.141-0.153-0.279-0.349-0.42c-0.262-0.187-0.704-0.369-1.328-0.545
		l-0.015-0.672c0.12-0.037,0.23-0.062,0.328-0.076c0.099-0.014,0.474-0.105,1.125-0.273c0.513-0.186,0.843-0.315,0.992-0.391
		c0.047-0.027,0.121-0.07,0.224-0.125c0.112-0.094,0.238-0.188,0.378-0.279c0.279-0.197,0.614-0.537,1.007-1.021l0.755-0.056
		l-0.028,1.578c-0.019,0.158-0.028,0.285-0.028,0.379c0,0.074,0.011,0.287,0.028,0.644c0.771-0.672,1.475-1.138,2.107-1.398
		c0.826-0.346,1.612-0.518,2.356-0.518c0.874,0,1.643,0.217,2.302,0.649c0.66,0.437,1.094,0.938,1.299,1.507
		c0.204,0.569,0.308,1.719,0.308,3.444l-0.058,4.564c0,0.215,0.037,0.393,0.112,0.531c0.093,0.063,0.351,0.129,0.77,0.196
		l0.685,0.134c0.084,0.118,0.126,0.266,0.126,0.438c0,0.111-0.005,0.262-0.014,0.455l-2.74-0.195l-0.811,0.027h-0.644l-1.845,0.125
		h-0.477c-0.009-0.117-0.014-0.205-0.014-0.271c0-0.161,0.01-0.338,0.028-0.526c0.131-0.027,0.456-0.074,0.979-0.142
		c0.141-0.018,0.293-0.051,0.461-0.098c0.188-0.074,0.294-0.148,0.321-0.223c0.074-0.16,0.111-0.463,0.111-0.91
		c0-0.783-0.004-1.387-0.015-1.807l0.015-1.623c0-1.968-0.125-3.195-0.376-3.681c-0.354-0.701-0.883-1.051-1.589-1.051
		c-0.521,0-1.061,0.135-1.617,0.4c-0.558,0.265-1.133,0.668-1.729,1.211l-0.027,0.235l0.027,0.881l-0.027,0.938l0.057,2.236
		l-0.028,0.35c0,1.519,0.062,2.375,0.184,2.57c0.122,0.196,0.588,0.414,1.396,0.653c0.028,0.158,0.043,0.275,0.043,0.351
		c0,0.11-0.033,0.285-0.099,0.518c-0.29,0.008-0.533,0.015-0.729,0.015c-0.195,0-0.505-0.031-0.925-0.095l-1.498-0.032
		c-0.747,0-1.825,0.032-3.234,0.098c-0.037-0.09-0.057-0.188-0.057-0.289C769.762,560.3,769.767,560.154,769.777,559.932z"/>
	<path fill="none" stroke="#0000FF" stroke-width="0.25" d="M796.41,550.447c0.598,0.578,1.043,1.239,1.337,1.989
		c0.294,0.752,0.439,1.457,0.439,2.119c0,1.248-0.19,2.254-0.573,3.019c-0.578,1.155-1.356,2.008-2.336,2.559
		c-0.979,0.549-2.117,0.824-3.414,0.824c-1.455,0-2.688-0.326-3.7-0.979c-1.013-0.651-1.735-1.393-2.169-2.223
		c-0.435-0.828-0.65-1.859-0.65-3.088c0-0.625,0.104-1.252,0.309-1.881c0.204-0.629,0.486-1.176,0.846-1.644
		c0.358-0.465,0.754-0.854,1.184-1.174c0.624-0.447,1.251-0.766,1.881-0.957c0.631-0.188,1.394-0.287,2.288-0.287
		C793.798,548.725,795.319,549.3,796.41,550.447z M788.766,555.275c0.084,1.157,0.146,1.823,0.183,2.002
		c0.121,0.625,0.312,1.161,0.572,1.608c0.178,0.289,0.472,0.545,0.881,0.771c0.41,0.225,0.898,0.336,1.469,0.336
		c0.679,0,1.252-0.217,1.719-0.65c0.466-0.434,0.801-1.112,1.006-2.037c0.13-0.604,0.195-1.6,0.195-2.979
		c0-1.697-0.279-2.898-0.839-3.604c-0.56-0.705-1.294-1.057-2.208-1.057c-0.717,0-1.312,0.201-1.781,0.602
		c-0.471,0.402-0.799,0.994-0.985,1.777C788.855,552.546,788.785,553.624,788.766,555.275z"/>
</g>
<g>
	<path fill="none" stroke="#0000FF" stroke-width="0.25" d="M1066.178,364.639c0.509-0.215,0.874-0.424,1.101-0.631
		c0.226-0.205,0.467-0.541,0.725-1.004h0.361c0.039,0.111,0.059,0.23,0.059,0.355c0,0.223-0.002,0.396-0.007,0.521l-0.02,0.381
		c0,0.021,0.002,0.07,0.007,0.148l0.147,0.006c0.021,0,0.223-0.008,0.604-0.025c0.03,0,0.191-0.004,0.484-0.014
		c0.025,0.115,0.038,0.217,0.038,0.307c0,0.099-0.015,0.214-0.045,0.347c-0.142,0.024-0.249,0.037-0.322,0.037
		c-0.034,0-0.104-0.009-0.206-0.025h-0.336l-0.115-0.006l-0.311,0.02l-0.012,2.463c-0.006,0.478,0.005,0.773,0.027,0.894
		c0.023,0.117,0.074,0.229,0.151,0.338c0.1,0.047,0.209,0.07,0.329,0.07c0.115,0,0.201-0.011,0.258-0.031
		c0.056-0.021,0.15-0.084,0.284-0.188c0.024-0.021,0.065-0.051,0.122-0.09c0.103,0.082,0.187,0.164,0.251,0.244l0.024,0.078
		c-0.149,0.236-0.36,0.422-0.635,0.557c-0.271,0.138-0.562,0.203-0.873,0.203c-0.4,0-0.725-0.125-0.974-0.379
		s-0.374-0.646-0.374-1.178l0.024-1.133v-1.836l-0.198-0.013l-0.466,0.013l-0.083-0.031c-0.025-0.039-0.037-0.074-0.037-0.109
		C1066.167,364.902,1066.171,364.805,1066.178,364.639z"/>
	<path fill="none" stroke="#0000FF" stroke-width="0.25" d="M1069.846,369.204c0.056-0.049,0.129-0.084,0.22-0.107
		c0.219-0.047,0.428-0.133,0.625-0.258c0.038-0.102,0.059-0.449,0.059-1.041c0-1.086-0.023-1.82-0.071-2.201
		c-0.009-0.067-0.043-0.129-0.103-0.182c-0.107-0.055-0.254-0.104-0.439-0.146c-0.086-0.021-0.137-0.069-0.154-0.143l-0.02-0.238
		c0.318-0.043,0.605-0.151,0.864-0.326c0.258-0.174,0.45-0.352,0.579-0.53c0.069-0.101,0.13-0.175,0.182-0.228l0.451-0.012
		c0.021,0.098,0.031,0.18,0.031,0.244c0,0.047-0.003,0.104-0.007,0.174c-0.004,0.15-0.006,0.275-0.006,0.375
		c0,0.047,0.002,0.225,0.006,0.535c0.178-0.301,0.307-0.504,0.388-0.607c0.039-0.047,0.151-0.151,0.342-0.313
		c0.146-0.107,0.312-0.162,0.496-0.162c0.229,0,0.426,0.078,0.594,0.231c0.168,0.154,0.252,0.334,0.252,0.535
		s-0.064,0.383-0.191,0.545c-0.126,0.16-0.295,0.242-0.506,0.242c-0.185,0-0.378-0.078-0.58-0.231
		c-0.119-0.097-0.217-0.144-0.289-0.144l-0.046,0.008c-0.091,0.029-0.172,0.111-0.245,0.244c-0.119,0.213-0.18,0.437-0.18,0.668
		l0.012,0.172c0.019,0.318,0.031,1.062,0.039,2.23c0.015,0.106,0.055,0.215,0.123,0.32c0.077,0.061,0.155,0.104,0.234,0.129
		c0.08,0.024,0.219,0.047,0.416,0.063c0.198,0.019,0.318,0.045,0.361,0.082s0.063,0.099,0.063,0.181c0,0.049-0.013,0.11-0.039,0.188
		h-0.604l-1.231-0.057c-0.31,0-0.591,0.012-0.845,0.037h-0.109c-0.029,0-0.254,0.012-0.67,0.032c-0.014-0.069-0.02-0.125-0.02-0.16
		C1069.828,369.32,1069.833,369.27,1069.846,369.204z"/>
	<path fill="none" stroke="#0000FF" stroke-width="0.25" d="M1074.26,364.333c0.15-0.025,0.275-0.039,0.374-0.039
		c0.052,0,0.109,0.002,0.174,0.008c0.393,0.025,0.71,0.037,0.954,0.037h0.336l0.915-0.057c0.034,0.024,0.064,0.053,0.09,0.084
		c-0.013,0.188-0.022,0.309-0.031,0.358c-0.064,0.015-0.113,0.021-0.148,0.027c-0.099,0.012-0.172,0.023-0.219,0.035
		c-0.047,0.01-0.1,0.02-0.154,0.029c-0.063,0.016-0.102,0.047-0.109,0.09c0.025,0.104,0.052,0.188,0.076,0.258l0.312,0.633
		c0.244,0.604,0.496,1.158,0.754,1.666l0.361,0.744c0.024-0.053,0.189-0.478,0.495-1.273c0.365-0.942,0.562-1.475,0.594-1.596
		c0.017-0.064,0.025-0.119,0.025-0.168c0-0.043-0.014-0.113-0.039-0.213c-0.095-0.068-0.172-0.111-0.231-0.131
		c-0.061-0.021-0.199-0.043-0.419-0.068l-0.206-0.051l-0.021-0.09c-0.004-0.041-0.006-0.074-0.006-0.095
		c0-0.034,0.006-0.09,0.021-0.166c0.129-0.008,0.221-0.012,0.275-0.012l0.522,0.031l0.348,0.014c0.146,0,0.4-0.021,0.762-0.063
		c0.224-0.025,0.392-0.041,0.502-0.045c0.01,0.104,0.015,0.186,0.015,0.239c0,0.025-0.003,0.064-0.007,0.115
		c-0.077,0.039-0.163,0.068-0.258,0.09c-0.155,0.039-0.291,0.074-0.406,0.109c-0.062,0.051-0.104,0.094-0.124,0.129
		c-0.073,0.162-0.223,0.52-0.445,1.07l-0.465,1.246l-1.079,2.567l-0.743,1.703c-0.163,0.326-0.354,0.607-0.573,0.844
		c-0.082,0.091-0.177,0.16-0.283,0.207c-0.177,0.068-0.375,0.104-0.601,0.104c-0.021,0-0.139-0.017-0.354-0.045
		c-0.177-0.043-0.33-0.138-0.459-0.277c-0.09-0.104-0.136-0.213-0.136-0.33c0-0.235,0.103-0.455,0.304-0.656
		c0.181-0.112,0.313-0.168,0.399-0.168c0.193,0,0.418,0.103,0.678,0.304c0.119,0.1,0.217,0.147,0.29,0.147
		c0.071,0,0.131-0.041,0.174-0.123c0.374-0.727,0.614-1.242,0.723-1.547l-1.188-2.627c-0.446-1.055-0.787-1.793-1.022-2.215
		c-0.122-0.215-0.207-0.342-0.257-0.381c-0.051-0.037-0.127-0.072-0.23-0.103c-0.057-0.014-0.121-0.039-0.194-0.077
		C1074.298,364.512,1074.279,364.421,1074.26,364.333z"/>
	<path fill="none" stroke="#0000FF" stroke-width="0.25" d="M1080.423,369.156c0.077-0.039,0.154-0.064,0.232-0.078
		c0.075-0.012,0.133-0.023,0.167-0.031c0.249-0.025,0.394-0.047,0.433-0.063c0.029-0.091,0.049-0.232,0.058-0.427l0.038-2.721
		v-0.367l0.007-0.276v-1.847c0-0.438-0.015-0.754-0.045-0.944c-0.005-0.05-0.02-0.119-0.046-0.214
		c-0.086-0.073-0.17-0.123-0.251-0.151c-0.081-0.027-0.253-0.058-0.516-0.086c-0.005-0.058-0.007-0.101-0.007-0.129
		c0-0.048,0.004-0.117,0.014-0.207c0.166-0.056,0.639-0.188,1.414-0.394c0.215-0.061,0.404-0.127,0.572-0.201l0.264,0.015
		l0.012,2.856c0,0.021-0.006,0.158-0.019,0.412c-0.005,0.09-0.007,0.269-0.007,0.535l-0.014,0.965v0.92
		c0.216-0.129,0.661-0.416,1.339-0.862c0.232-0.154,0.492-0.349,0.781-0.58c0.12-0.095,0.207-0.17,0.265-0.23
		c-0.068-0.029-0.136-0.055-0.199-0.072c-0.163-0.039-0.358-0.104-0.586-0.196c-0.004-0.06-0.006-0.104-0.006-0.134
		c0-0.043,0.006-0.106,0.02-0.196l0.476-0.006c0.038,0,0.149,0.006,0.332,0.016c0.183,0.012,0.364,0.018,0.551,0.018
		c0.148,0,0.36-0.01,0.633-0.028c0.271-0.021,0.441-0.029,0.506-0.029c0.068,0,0.171,0.004,0.309,0.014
		c0.005,0.047,0.007,0.08,0.007,0.103c0,0.043-0.009,0.104-0.025,0.182l-0.508,0.164c-0.279,0.082-0.492,0.166-0.638,0.248
		c-0.356,0.201-0.961,0.588-1.809,1.16c0.104,0.109,0.211,0.217,0.322,0.324l0.168,0.153l0.478,0.479l1.052,1.061l0.605,0.607
		c0.09,0.062,0.268,0.152,0.533,0.27c0.005,0.123,0.007,0.195,0.007,0.218c0,0.034-0.002,0.088-0.007,0.157
		c-0.047,0-0.187-0.012-0.418-0.032c-0.133-0.019-0.248-0.025-0.348-0.025c-0.893,0-1.652,0.01-2.283,0.031
		c0-0.064-0.004-0.115-0.014-0.15l-0.007-0.098c0-0.031,0.012-0.078,0.033-0.146c0.106-0.037,0.25-0.062,0.431-0.078
		c0.073-0.004,0.151-0.012,0.237-0.024c-0.063-0.115-0.143-0.223-0.237-0.322l-1.679-1.783l-0.352,0.191v1.348
		c0,0.039,0.004,0.109,0.014,0.213l0.006,0.238c0.086,0.06,0.152,0.096,0.199,0.111c0.074,0.024,0.211,0.049,0.413,0.07
		c0.056,0.004,0.107,0.012,0.155,0.022v0.168l0.012,0.119c0,0.021-0.006,0.059-0.02,0.106l-0.046,0.021
		c-0.395-0.016-0.709-0.031-0.939-0.051c-0.125-0.011-0.225-0.015-0.297-0.015c-0.038,0-0.135,0.002-0.284,0.007h-0.367
		l-0.555,0.047l-0.167-0.006l-0.381,0.018c-0.018-0.074-0.025-0.141-0.025-0.201
		C1080.416,369.288,1080.419,369.227,1080.423,369.156z"/>
	<path fill="none" stroke="#0000FF" stroke-width="0.25" d="M1087.107,369.156c0.077-0.039,0.153-0.064,0.231-0.078
		c0.077-0.012,0.133-0.023,0.168-0.031c0.248-0.025,0.394-0.047,0.433-0.063c0.028-0.091,0.049-0.232,0.059-0.427l0.038-2.721
		v-0.367l0.007-0.276v-1.847c0-0.438-0.016-0.754-0.045-0.944c-0.005-0.05-0.021-0.119-0.046-0.214
		c-0.087-0.073-0.171-0.123-0.251-0.151c-0.082-0.027-0.254-0.058-0.517-0.086c-0.005-0.058-0.007-0.101-0.007-0.129
		c0-0.048,0.004-0.117,0.013-0.207c0.167-0.056,0.64-0.188,1.414-0.394c0.215-0.061,0.405-0.127,0.572-0.201l0.264,0.015
		l0.014,2.856c0,0.021-0.007,0.158-0.02,0.412c-0.005,0.09-0.007,0.269-0.007,0.535l-0.013,0.965v0.92
		c0.215-0.129,0.661-0.416,1.338-0.862c0.231-0.154,0.492-0.349,0.781-0.58c0.12-0.095,0.208-0.17,0.264-0.23
		c-0.068-0.029-0.135-0.055-0.199-0.072c-0.162-0.039-0.356-0.104-0.585-0.196c-0.005-0.06-0.007-0.104-0.007-0.134
		c0-0.043,0.007-0.106,0.021-0.196l0.477-0.006c0.038,0,0.148,0.006,0.33,0.016c0.184,0.012,0.366,0.018,0.551,0.018
		c0.15,0,0.361-0.01,0.633-0.028c0.273-0.021,0.441-0.029,0.507-0.029c0.067,0,0.172,0.004,0.309,0.014
		c0.004,0.047,0.006,0.08,0.006,0.103c0,0.043-0.008,0.104-0.024,0.182l-0.509,0.164c-0.278,0.082-0.491,0.166-0.637,0.248
		c-0.357,0.201-0.96,0.588-1.808,1.16c0.103,0.109,0.21,0.217,0.321,0.324l0.168,0.153l0.479,0.479l1.051,1.061l0.605,0.607
		c0.09,0.062,0.268,0.152,0.534,0.27c0.005,0.123,0.007,0.195,0.007,0.218c0,0.034-0.002,0.088-0.007,0.157
		c-0.049,0-0.188-0.012-0.418-0.032c-0.135-0.019-0.25-0.025-0.349-0.025c-0.892,0-1.653,0.01-2.284,0.031
		c0-0.064-0.004-0.115-0.012-0.15l-0.008-0.098c0-0.031,0.012-0.078,0.033-0.146c0.106-0.037,0.25-0.062,0.431-0.078
		c0.073-0.004,0.151-0.012,0.238-0.024c-0.064-0.115-0.145-0.223-0.238-0.322l-1.679-1.783l-0.353,0.191v1.348
		c0,0.039,0.005,0.109,0.015,0.213l0.006,0.238c0.086,0.06,0.151,0.096,0.199,0.111c0.073,0.024,0.21,0.049,0.413,0.07
		c0.056,0.004,0.107,0.012,0.154,0.022v0.168l0.013,0.119c0,0.021-0.007,0.059-0.019,0.106l-0.046,0.021
		c-0.396-0.016-0.709-0.031-0.94-0.051c-0.125-0.011-0.225-0.015-0.297-0.015c-0.039,0-0.134,0.002-0.284,0.007h-0.367l-0.555,0.047
		l-0.167-0.006l-0.381,0.018c-0.019-0.074-0.025-0.141-0.025-0.201C1087.1,369.288,1087.102,369.227,1087.107,369.156z"/>
	<path fill="none" stroke="#0000FF" stroke-width="0.25" d="M1093.913,366.109c0.11-0.365,0.211-0.609,0.297-0.729
		c0.24-0.354,0.497-0.629,0.771-0.826c0.272-0.199,0.52-0.33,0.737-0.395c0.284-0.082,0.515-0.123,0.69-0.123
		c0.402,0,0.729,0.031,0.979,0.094c0.25,0.062,0.458,0.152,0.626,0.269c0.24,0.168,0.436,0.336,0.58,0.508s0.265,0.375,0.358,0.604
		c0.092,0.232,0.143,0.515,0.149,0.844l-0.715-0.012c-0.198,0-0.633-0.02-1.303-0.057c-0.249-0.021-0.421-0.031-0.517-0.031
		c-0.029,0-0.262,0.004-0.695,0.012h-0.555c-0.01,0.062-0.014,0.113-0.014,0.156c0,0.229,0.027,0.469,0.084,0.721
		s0.141,0.474,0.252,0.666c0.111,0.191,0.25,0.355,0.415,0.494c0.165,0.138,0.337,0.236,0.513,0.297l0.374,0.123
		c0.331,0,0.553-0.012,0.664-0.032c0.206-0.044,0.388-0.099,0.544-0.164c0.158-0.066,0.349-0.181,0.571-0.339
		c0.155,0.111,0.284,0.214,0.387,0.304c-0.378,0.416-0.771,0.719-1.177,0.905c-0.406,0.188-0.86,0.279-1.363,0.279
		c-0.34,0-0.617-0.029-0.832-0.09c-0.287-0.078-0.547-0.195-0.779-0.355c-0.231-0.157-0.432-0.354-0.6-0.594
		c-0.168-0.235-0.293-0.479-0.374-0.729c-0.106-0.326-0.161-0.59-0.161-0.787C1093.824,366.747,1093.852,366.409,1093.913,366.109z
		 M1097.66,365.835c-0.004-0.242-0.053-0.473-0.144-0.693c-0.09-0.219-0.229-0.391-0.418-0.514
		c-0.188-0.123-0.381-0.186-0.573-0.186c-0.288,0-0.549,0.127-0.78,0.381s-0.363,0.598-0.395,1.03l1.472,0.015
		c0.094,0,0.227-0.008,0.398-0.021c0.124-0.012,0.212-0.018,0.266-0.018C1097.523,365.831,1097.581,365.831,1097.66,365.835z"/>
</g>
<g>
	<path fill="none" stroke="#0000FF" stroke-width="0.25" d="M741.102,412.534c0.033-0.019,0.081-0.027,0.142-0.033
		c0.254-0.016,0.456-0.062,0.605-0.135c0.03-0.015,0.048-0.041,0.056-0.084c0.007-0.043,0.019-0.435,0.036-1.172v-0.373l0.006-0.662
		l-0.006-0.689v-0.153c0-0.201-0.048-0.351-0.14-0.447c-0.093-0.097-0.334-0.201-0.726-0.312v-0.264
		c0.081-0.021,0.179-0.045,0.29-0.07c0.396-0.082,0.723-0.198,0.979-0.35c0.197-0.115,0.394-0.289,0.586-0.521h0.354v0.104
		l0.02,0.516l-0.007,0.238l0.014,0.115c0.408-0.322,0.748-0.533,1.021-0.638c0.272-0.104,0.586-0.153,0.938-0.153
		c0.34,0,0.667,0.071,0.983,0.219c0.315,0.146,0.578,0.391,0.789,0.734c0.306-0.295,0.561-0.502,0.768-0.621
		c0.143-0.08,0.336-0.152,0.584-0.215c0.246-0.062,0.479-0.093,0.699-0.093c0.597,0,1.069,0.181,1.418,0.541
		c0.349,0.363,0.521,0.857,0.521,1.48v1.022c0,0.211-0.007,0.572-0.021,1.089v0.495c0,0.086,0.026,0.171,0.078,0.25
		c0.167,0.072,0.311,0.119,0.432,0.14c0.086,0.014,0.168,0.043,0.245,0.09c0.009,0.078,0.02,0.143,0.032,0.195l-0.007,0.131
		c-0.12,0.021-0.206,0.033-0.258,0.033c-0.034,0-0.14-0.011-0.312-0.029c-0.175-0.021-0.395-0.029-0.661-0.029
		c-0.647,0-1.164,0.021-1.547,0.06c-0.03-0.107-0.045-0.193-0.045-0.259l0.006-0.09c0.058-0.028,0.24-0.102,0.555-0.221
		c0.057-0.055,0.089-0.105,0.098-0.148c0.021-0.104,0.032-0.336,0.032-0.688l-0.032-1.816c-0.005-0.305-0.028-0.557-0.071-0.756
		s-0.104-0.354-0.188-0.469c-0.084-0.115-0.197-0.207-0.34-0.281c-0.142-0.072-0.289-0.108-0.443-0.108
		c-0.241,0-0.486,0.067-0.735,0.2c-0.249,0.136-0.471,0.338-0.664,0.611l-0.013,0.188l0.02,0.824l-0.013,0.677v0.646l-0.006,0.574
		c0,0.283,0.027,0.451,0.084,0.502c0.086,0.082,0.297,0.141,0.631,0.174l0.201,0.066c0.033,0.1,0.051,0.178,0.051,0.233
		c0,0.031-0.009,0.084-0.024,0.158l-0.188-0.008h-0.257l-0.136-0.006c-0.305-0.029-0.619-0.047-0.945-0.052l-0.688-0.014
		c-0.167,0-0.457,0.021-0.868,0.06l-0.115-0.021l-0.014-0.387c0.129-0.035,0.36-0.066,0.696-0.09
		c0.021-0.007,0.05-0.015,0.084-0.027c0.048-0.055,0.074-0.103,0.083-0.141c0.021-0.087,0.032-0.261,0.032-0.523l-0.007-1.309
		l0.02-0.349c0-0.67-0.023-1.084-0.07-1.244c-0.062-0.207-0.187-0.375-0.378-0.506c-0.192-0.131-0.421-0.196-0.688-0.196
		c-0.35,0-0.651,0.084-0.911,0.247c-0.259,0.166-0.406,0.312-0.445,0.441c-0.004,0.053-0.006,0.092-0.006,0.117l0.013,0.063v0.064
		c0,0.039-0.013,0.1-0.039,0.18l0.02,1.853l0.008,0.967c0,0.033,0.006,0.09,0.02,0.168l0.031,0.096
		c0.119,0.037,0.222,0.064,0.307,0.082c0.158,0.033,0.277,0.07,0.357,0.111c0.014,0.074,0.02,0.125,0.02,0.156
		c0,0.055-0.018,0.135-0.051,0.235c-0.068,0.006-0.118,0.008-0.148,0.008c-0.047,0-0.262-0.018-0.645-0.053l-0.703-0.006
		c-0.336,0-0.742,0.021-1.219,0.064l-0.188-0.007c-0.008-0.067-0.017-0.147-0.024-0.237
		C741.07,412.663,741.08,412.606,741.102,412.534z"/>
	<path fill="none" stroke="#0000FF" stroke-width="0.25" d="M757.573,411.753l0.146,0.098c0.039,0.029,0.062,0.066,0.072,0.109
		l0.006,0.033c-0.104,0.381-0.238,0.645-0.406,0.789c-0.168,0.144-0.376,0.215-0.625,0.215c-0.254,0-0.472-0.068-0.653-0.209
		c-0.184-0.14-0.351-0.385-0.5-0.738c-0.185,0.326-0.444,0.572-0.779,0.738c-0.336,0.166-0.746,0.248-1.232,0.248
		c-0.445,0-0.774-0.094-0.985-0.279c-0.211-0.188-0.315-0.434-0.315-0.738c0-0.143,0.03-0.287,0.093-0.432
		c0.062-0.146,0.164-0.291,0.305-0.436c0.14-0.146,0.363-0.304,0.673-0.476c0.048-0.024,0.211-0.098,0.49-0.219l1.604-0.646
		c0.014-0.164,0.021-0.328,0.021-0.496c0-0.579-0.07-0.977-0.214-1.188c-0.086-0.129-0.235-0.193-0.45-0.193
		c-0.216,0-0.412,0.041-0.595,0.123c-0.18,0.082-0.311,0.188-0.393,0.316c-0.062,0.094-0.111,0.272-0.154,0.535
		c-0.031,0.188-0.059,0.299-0.084,0.328c-0.063,0.082-0.182,0.155-0.352,0.223s-0.285,0.115-0.345,0.145
		c-0.232,0.113-0.418,0.168-0.556,0.168c-0.06-0.051-0.091-0.125-0.091-0.219c0-0.246,0.053-0.455,0.155-0.633
		c0.155-0.248,0.388-0.49,0.7-0.725c0.311-0.234,0.602-0.398,0.873-0.492c0.368-0.121,0.819-0.183,1.354-0.183
		c0.344,0,0.639,0.064,0.887,0.189c0.247,0.127,0.419,0.316,0.517,0.563c0.097,0.25,0.145,0.699,0.145,1.349l-0.013,1.063
		l0.013,0.779v0.199c0,0.182,0.025,0.305,0.073,0.371c0.049,0.065,0.11,0.1,0.187,0.1c0.048,0,0.089-0.012,0.121-0.037l0.193-0.303
		L757.573,411.753z M755.458,410.259c-0.246,0.08-0.521,0.217-0.828,0.408c-0.309,0.191-0.521,0.385-0.643,0.578
		c-0.087,0.141-0.13,0.313-0.13,0.521c0,0.187,0.058,0.338,0.168,0.457c0.111,0.121,0.24,0.183,0.388,0.183
		c0.24,0,0.444-0.068,0.612-0.207c0.228-0.185,0.36-0.332,0.398-0.441c0.039-0.109,0.059-0.42,0.059-0.932
		C755.484,410.635,755.474,410.447,755.458,410.259z M754.013,405.764c0-0.297,0.104-0.551,0.311-0.76
		c0.206-0.211,0.457-0.316,0.754-0.316c0.301,0,0.556,0.104,0.764,0.312c0.209,0.209,0.312,0.461,0.312,0.758
		s-0.104,0.549-0.312,0.76s-0.463,0.316-0.764,0.316c-0.288,0-0.537-0.107-0.748-0.318
		C754.119,406.303,754.013,406.052,754.013,405.764z M755.077,406.331c0.164,0,0.302-0.057,0.416-0.168
		c0.112-0.113,0.171-0.25,0.171-0.408s-0.059-0.293-0.171-0.406c-0.114-0.112-0.248-0.17-0.402-0.17
		c-0.164,0-0.303,0.056-0.416,0.166c-0.114,0.111-0.172,0.248-0.172,0.41c0,0.158,0.057,0.295,0.168,0.408
		C754.783,406.275,754.918,406.331,755.077,406.331z"/>
	<path fill="none" stroke="#0000FF" stroke-width="0.25" d="M757.868,412.641c0.111-0.051,0.215-0.086,0.31-0.104
		c0.236-0.037,0.374-0.07,0.412-0.096c0.064-0.039,0.107-0.087,0.129-0.144c0.026-0.086,0.039-0.274,0.039-0.568v-0.561l0.007-0.459
		l-0.02-0.678v-0.406c0-0.271-0.021-0.492-0.064-0.666c-0.017-0.064-0.07-0.129-0.161-0.193c-0.121-0.086-0.323-0.17-0.611-0.252
		l-0.008-0.309c0.058-0.019,0.106-0.029,0.152-0.035c0.045-0.006,0.217-0.049,0.519-0.127c0.235-0.086,0.39-0.146,0.459-0.18
		c0.021-0.015,0.055-0.031,0.103-0.06c0.052-0.043,0.11-0.086,0.175-0.129c0.129-0.09,0.283-0.246,0.463-0.471l0.35-0.025
		l-0.014,0.729c-0.009,0.074-0.014,0.131-0.014,0.174c0,0.035,0.005,0.135,0.014,0.297c0.355-0.309,0.681-0.522,0.973-0.645
		c0.382-0.158,0.745-0.238,1.088-0.238c0.403,0,0.757,0.1,1.062,0.301c0.306,0.199,0.504,0.432,0.6,0.693
		c0.095,0.264,0.142,0.793,0.142,1.59l-0.024,2.104c0,0.101,0.018,0.181,0.051,0.244c0.043,0.029,0.162,0.062,0.354,0.092
		l0.315,0.062c0.039,0.055,0.058,0.123,0.058,0.203c0,0.051-0.002,0.121-0.006,0.209l-1.264-0.09l-0.374,0.014h-0.296l-0.853,0.059
		h-0.219c-0.005-0.055-0.007-0.096-0.007-0.125c0-0.075,0.005-0.155,0.013-0.243c0.062-0.013,0.211-0.033,0.451-0.064
		c0.064-0.008,0.136-0.023,0.213-0.045c0.086-0.035,0.136-0.068,0.148-0.104c0.033-0.071,0.052-0.213,0.052-0.42
		c0-0.36-0.003-0.639-0.007-0.832l0.007-0.75c0-0.905-0.058-1.473-0.174-1.696c-0.163-0.322-0.407-0.484-0.733-0.484
		c-0.24,0-0.488,0.062-0.746,0.187c-0.256,0.12-0.521,0.309-0.797,0.557l-0.013,0.111l0.013,0.405l-0.013,0.433l0.025,1.03
		l-0.014,0.16c0,0.701,0.028,1.099,0.085,1.188s0.271,0.19,0.645,0.301c0.014,0.074,0.02,0.127,0.02,0.162
		c0,0.051-0.016,0.131-0.045,0.238c-0.135,0.004-0.246,0.006-0.336,0.006c-0.091,0-0.232-0.015-0.427-0.043l-0.691-0.017
		c-0.345,0-0.842,0.017-1.492,0.047c-0.017-0.043-0.025-0.088-0.025-0.135C757.861,412.811,757.863,412.743,757.868,412.641z"/>
	<path fill="none" stroke="#0000FF" stroke-width="0.25" d="M765.119,409.544c0.111-0.365,0.211-0.607,0.297-0.729
		c0.241-0.354,0.498-0.63,0.771-0.826c0.271-0.197,0.519-0.328,0.737-0.396c0.284-0.08,0.514-0.121,0.69-0.121
		c0.402,0,0.729,0.031,0.979,0.095c0.249,0.061,0.458,0.149,0.626,0.266c0.24,0.168,0.435,0.338,0.58,0.51
		c0.146,0.172,0.265,0.373,0.357,0.605c0.092,0.231,0.143,0.514,0.15,0.844l-0.716-0.012c-0.197,0-0.632-0.021-1.303-0.058
		c-0.248-0.021-0.42-0.032-0.517-0.032c-0.028,0-0.262,0.004-0.694,0.014h-0.556c-0.009,0.061-0.014,0.111-0.014,0.154
		c0,0.229,0.028,0.469,0.084,0.721c0.057,0.252,0.141,0.475,0.252,0.666c0.111,0.19,0.25,0.356,0.416,0.494
		c0.165,0.139,0.336,0.237,0.512,0.297l0.375,0.123c0.33,0,0.553-0.01,0.664-0.031c0.205-0.043,0.388-0.098,0.545-0.164
		c0.156-0.066,0.347-0.18,0.57-0.34c0.154,0.113,0.283,0.213,0.387,0.305c-0.379,0.416-0.771,0.719-1.177,0.904
		c-0.405,0.188-0.859,0.281-1.364,0.281c-0.339,0-0.615-0.031-0.83-0.09c-0.288-0.078-0.549-0.197-0.78-0.355
		c-0.232-0.16-0.433-0.357-0.601-0.594c-0.168-0.237-0.292-0.48-0.373-0.73c-0.106-0.326-0.161-0.588-0.161-0.787
		C765.029,410.184,765.058,409.846,765.119,409.544z M768.865,409.272c-0.004-0.241-0.052-0.473-0.143-0.692
		s-0.229-0.394-0.419-0.517c-0.189-0.122-0.381-0.184-0.574-0.184c-0.286,0-0.548,0.127-0.778,0.379
		c-0.232,0.254-0.363,0.598-0.395,1.033l1.471,0.012c0.095,0,0.228-0.006,0.399-0.02c0.124-0.013,0.212-0.019,0.265-0.019
		C768.729,409.266,768.787,409.268,768.865,409.272z"/>
	<path fill="none" stroke="#0000FF" stroke-width="0.25" d="M772.125,408.02c0.21-0.146,0.413-0.25,0.607-0.313
		c0.196-0.064,0.474-0.115,0.829-0.148h0.36c0.469,0,0.918,0.16,1.348,0.482l0.015-0.154l-0.008-0.432l0.026-0.689
		c0-0.727-0.057-1.188-0.168-1.381c-0.064-0.115-0.178-0.178-0.339-0.186c-0.161-0.011-0.291-0.037-0.39-0.084v-0.312
		c0.081-0.024,0.187-0.039,0.314-0.041s0.38-0.047,0.755-0.133l0.219-0.045l0.64-0.148c0.129-0.028,0.207-0.045,0.237-0.045
		c0.021,0,0.056,0.004,0.103,0.015c0.027,0.09,0.039,0.155,0.039,0.198l-0.006,0.097v0.117c0,0.118,0.006,0.438,0.02,0.961v0.348
		l0.006,0.188l-0.006,0.322l0.021,0.67l-0.015,0.394c-0.008,0.172-0.012,0.442-0.012,0.812c0,0.062,0.002,0.113,0.006,0.162v0.238
		c-0.004,0.067-0.006,0.119-0.006,0.153c0,0.064,0.006,0.156,0.018,0.277v0.354l-0.006,0.137c-0.008,0.125-0.012,0.297-0.012,0.516
		c0,0.224,0.004,0.427,0.012,0.605c0.004,0.074,0.006,0.141,0.006,0.199v0.483c0,0.154,0.007,0.34,0.015,0.556
		c0.078,0.047,0.268,0.081,0.567,0.104c0.095,0.004,0.179,0.014,0.25,0.031c0.021,0.063,0.033,0.11,0.033,0.143
		c0,0.039-0.016,0.097-0.045,0.174c-0.178,0.043-0.361,0.074-0.555,0.097c-0.59,0.074-1.008,0.178-1.257,0.311
		c-0.12,0.068-0.204,0.104-0.251,0.104c-0.048,0-0.103-0.006-0.162-0.015c0.004-0.078,0.007-0.127,0.007-0.147
		c0-0.295-0.007-0.484-0.021-0.566c-0.063,0.035-0.144,0.08-0.237,0.137c-0.288,0.175-0.55,0.296-0.786,0.361
		c-0.236,0.066-0.508,0.103-0.812,0.103c-0.542,0-0.974-0.104-1.296-0.312c-0.478-0.301-0.808-0.662-0.988-1.082
		c-0.185-0.422-0.274-0.885-0.274-1.387C770.926,409.378,771.326,408.635,772.125,408.02z M774.111,412.283
		c0.09,0.01,0.168,0.014,0.231,0.014c0.143,0,0.293-0.029,0.454-0.09c0.161-0.06,0.332-0.146,0.513-0.26
		c0.004-0.142,0.006-0.229,0.006-0.265c0-1.36-0.02-2.184-0.058-2.463c-0.052-0.373-0.193-0.662-0.425-0.863
		c-0.232-0.2-0.514-0.303-0.846-0.303c-0.188,0-0.368,0.033-0.537,0.104c-0.17,0.067-0.31,0.166-0.416,0.295
		c-0.16,0.188-0.279,0.403-0.361,0.645c-0.111,0.334-0.168,0.646-0.168,0.939c0,0.699,0.147,1.233,0.445,1.604
		C773.247,412.012,773.634,412.225,774.111,412.283z"/>
</g>
<g>
	<polygon fill="none" stroke="#69BC45" stroke-width="0.25" stroke-miterlimit="10" points="879.757,384.848 879.757,482.643 
		1024.04,482.643 1024.04,462.801 1018.372,462.801 1018.372,404.692 1024.04,404.692 1024.04,384.848 	"/>
</g>
<rect x="876.428" y="229.969" fill="none" stroke="#69BC45" stroke-width="0.25" stroke-miterlimit="10" width="25.513" height="31.182"/>
<circle fill="none" stroke="#69BC45" stroke-width="0.25" stroke-miterlimit="10" cx="1120.542" cy="230.627" r="4.96"/>
<circle fill="none" stroke="#69BC45" stroke-width="0.25" stroke-miterlimit="10" cx="1048.066" cy="229.667" r="4.96"/>
<path fill="none" stroke="#69BC45" stroke-width="0.25" stroke-miterlimit="10" d="M1056.572,218.455
	c0-1.694,1.783-3.067,3.987-3.067h47.852c2.201,0,3.987,1.373,3.987,3.067l-3.648,20.451c0,1.694-1.784,3.068-3.987,3.068h-40.622
	c-2.203,0-3.986-1.374-3.986-3.068L1056.572,218.455z"/>
<g>
	<path fill="none" stroke="#0000FF" stroke-width="0.25" d="M105.159,234.401c0.211,0.118,0.369,0.197,0.476,0.237
		c0.304,0.132,0.548,0.297,0.731,0.493c-0.355,1.319-1.22,2.46-2.592,3.424c-1.372,0.963-3.106,1.443-5.203,1.443
		c-1.319,0-2.625-0.275-3.918-0.831c-1.292-0.554-2.321-1.286-3.086-2.195c-0.594-0.698-1.039-1.557-1.336-2.571
		c-0.297-1.016-0.445-1.88-0.445-2.592c0-0.857,0.186-1.83,0.556-2.919c0.368-1.089,0.988-2.113,1.858-3.076
		c0.871-0.963,1.969-1.729,3.294-2.295c1.326-0.567,2.819-0.852,4.481-0.852c2.282,0,3.871,0.356,4.769,1.068
		c0.896,0.712,1.345,1.425,1.345,2.137c0,0.699-0.182,1.25-0.544,1.652c-0.361,0.401-0.859,0.603-1.492,0.603
		c-0.541,0-1.039-0.178-1.494-0.534c-0.455-0.354-0.834-0.955-1.139-1.8c-0.236-0.605-0.541-1.049-0.909-1.326
		c-0.369-0.264-0.812-0.396-1.325-0.396c-1.24,0-2.349,0.531-3.324,1.593c-0.977,1.062-1.464,2.51-1.464,4.343
		c0,2.203,0.597,3.954,1.79,5.253c1.193,1.3,2.549,1.949,4.065,1.949c0.752,0,1.393-0.086,1.919-0.258
		c0.329-0.118,0.778-0.376,1.347-0.771c0.145-0.105,0.418-0.39,0.819-0.852C104.74,234.868,105.014,234.559,105.159,234.401z"/>
	<path fill="none" stroke="#0000FF" stroke-width="0.25" d="M123.355,225.141c0.846,0.817,1.476,1.758,1.892,2.818
		c0.416,1.062,0.624,2.062,0.624,2.998c0,1.769-0.271,3.191-0.812,4.273c-0.818,1.636-1.921,2.842-3.309,3.62
		c-1.387,0.777-2.997,1.167-4.832,1.167c-2.061,0-3.807-0.461-5.238-1.386c-1.434-0.923-2.456-1.972-3.07-3.146
		c-0.613-1.174-0.921-2.632-0.921-4.372c0-0.884,0.146-1.771,0.436-2.661c0.291-0.891,0.69-1.665,1.198-2.325
		c0.509-0.658,1.066-1.213,1.675-1.662c0.884-0.633,1.771-1.084,2.663-1.354c0.893-0.271,1.971-0.406,3.238-0.406
		C119.657,222.708,121.81,223.519,123.355,225.141z M112.535,231.978c0.119,1.638,0.204,2.582,0.257,2.833
		c0.172,0.885,0.442,1.645,0.812,2.277c0.25,0.409,0.666,0.772,1.246,1.09c0.581,0.316,1.272,0.477,2.078,0.477
		c0.962,0,1.772-0.308,2.434-0.922c0.659-0.614,1.134-1.575,1.424-2.883c0.186-0.857,0.277-2.266,0.277-4.221
		c0-2.402-0.396-4.104-1.188-5.101c-0.791-0.998-1.833-1.496-3.126-1.496c-1.016,0-1.855,0.284-2.521,0.852
		c-0.666,0.568-1.131,1.406-1.396,2.518C112.66,228.115,112.562,229.64,112.535,231.978z"/>
	<path fill="none" stroke="#0000FF" stroke-width="0.25" d="M149.449,223.618h1.147c-0.079,2.085-0.624,3.674-1.634,4.769
		c-1.009,1.096-2.244,1.643-3.709,1.643c-0.698,0-1.438-0.111-2.216-0.336c-0.778-0.226-2.513-0.903-5.204-2.038
		c-1.926-0.804-3.311-1.207-4.153-1.207c-0.925,0-1.688,0.281-2.295,0.841c-0.607,0.562-1.011,1.461-1.207,2.701h-1.147
		c0.105-2.177,0.646-3.785,1.622-4.827s2.149-1.562,3.521-1.562c0.713,0,1.404,0.093,2.077,0.276
		c1.318,0.369,3.054,1.02,5.203,1.948c2.149,0.93,3.646,1.396,4.491,1.396c0.938,0,1.721-0.308,2.354-0.922
		S149.317,224.793,149.449,223.618z"/>
	<path fill="none" stroke="#0000FF" stroke-width="0.25" d="M153.461,224.56c1.558-0.658,2.682-1.304,3.374-1.937
		c0.692-0.632,1.435-1.659,2.227-3.082h1.106c0.119,0.343,0.18,0.706,0.18,1.088c0,0.688-0.008,1.222-0.021,1.604l-0.059,1.167
		c0,0.065,0.006,0.218,0.02,0.455l0.455,0.021c0.065,0,0.687-0.025,1.859-0.079c0.093,0,0.587-0.014,1.483-0.04
		c0.079,0.354,0.118,0.666,0.118,0.94c0,0.301-0.046,0.653-0.139,1.059c-0.436,0.079-0.766,0.118-0.989,0.118
		c-0.104,0-0.315-0.025-0.633-0.079h-1.028l-0.355-0.02l-0.95,0.059l-0.039,7.56c-0.014,1.464,0.017,2.377,0.089,2.739
		s0.229,0.709,0.465,1.038c0.305,0.146,0.641,0.219,1.009,0.219c0.356,0,0.62-0.033,0.792-0.1c0.172-0.065,0.462-0.257,0.87-0.573
		c0.079-0.064,0.205-0.156,0.376-0.275c0.316,0.25,0.574,0.501,0.771,0.751l0.079,0.236c-0.462,0.726-1.111,1.296-1.948,1.712
		c-0.838,0.415-1.731,0.623-2.681,0.623c-1.228,0-2.224-0.39-2.988-1.165c-0.765-0.777-1.147-1.982-1.147-3.616l0.079-3.478v-5.631
		l-0.612-0.04l-1.425,0.04l-0.258-0.099c-0.079-0.117-0.118-0.229-0.118-0.333C153.422,225.364,153.435,225.07,153.461,224.56z"/>
	<path fill="none" stroke="#0000FF" stroke-width="0.25" d="M164.576,239.564l-0.039-1.285l2.235-0.297
		c0.33-0.093,0.558-0.229,0.683-0.406s0.188-0.576,0.188-1.196v-0.218c0-0.158,0.01-0.445,0.028-0.86
		c0.021-0.416,0.029-0.781,0.029-1.099c0-0.25-0.02-0.73-0.059-1.444l0.028-0.988l-0.028-0.931l0.059-3.225
		c0-0.409-0.04-0.831-0.119-1.267c-0.146-0.197-0.412-0.369-0.797-0.516c-0.385-0.145-1.056-0.25-2.012-0.315v-1.107
		c1.358-0.079,2.552-0.363,3.581-0.851c0.699-0.317,1.457-0.878,2.274-1.684h1.325c0.054,1.637,0.079,3.76,0.079,6.371l-0.139,8.072
		c0,0.554,0.025,1.056,0.079,1.504c0.408,0.145,1.074,0.29,1.999,0.435c0.354,0.054,0.64,0.119,0.851,0.198l-0.04,1.088
		c-0.354,0.015-0.619,0.021-0.79,0.021c-0.197,0-0.5-0.014-0.908-0.039c-1.343-0.066-3.14-0.1-5.391-0.1
		c-0.646,0-1.271,0.022-1.876,0.069C165.215,239.542,164.8,239.564,164.576,239.564z M167.347,215.962
		c0-0.712,0.229-1.296,0.691-1.751c0.461-0.455,1.056-0.683,1.78-0.683c0.778,0,1.425,0.241,1.938,0.722
		c0.516,0.482,0.772,1.026,0.772,1.633c0,0.448-0.103,0.896-0.307,1.346c-0.205,0.448-0.528,0.809-0.971,1.079
		c-0.441,0.271-0.894,0.404-1.354,0.404c-0.633,0-1.217-0.271-1.751-0.812C167.614,217.36,167.347,216.714,167.347,215.962z"/>
	<path fill="none" stroke="#0000FF" stroke-width="0.25" d="M179.55,224.389c0.646-0.448,1.269-0.771,1.868-0.97
		c0.601-0.197,1.447-0.35,2.542-0.455h1.108c1.438,0,2.815,0.494,4.135,1.483l0.04-0.475l-0.021-1.325l0.079-2.117
		c0-2.229-0.172-3.641-0.515-4.234c-0.198-0.354-0.544-0.547-1.039-0.572c-0.494-0.026-0.894-0.112-1.196-0.259v-0.948
		c0.251-0.079,0.573-0.122,0.97-0.129c0.396-0.007,1.167-0.143,2.313-0.405l0.674-0.14l1.959-0.454
		c0.396-0.093,0.64-0.14,0.731-0.14c0.065,0,0.171,0.015,0.316,0.04c0.079,0.276,0.117,0.481,0.117,0.613l-0.02,0.297v0.355
		c0,0.369,0.02,1.353,0.06,2.947v1.068l0.021,0.574l-0.021,0.988l0.061,2.059l-0.04,1.206c-0.026,0.527-0.039,1.358-0.039,2.493
		c0,0.185,0.006,0.35,0.02,0.494v0.731c-0.014,0.211-0.02,0.37-0.02,0.475c0,0.198,0.02,0.482,0.059,0.853v1.088l-0.02,0.415
		c-0.026,0.383-0.039,0.91-0.039,1.583c0,0.687,0.013,1.306,0.039,1.858c0.013,0.226,0.02,0.431,0.02,0.614v1.483
		c0,0.475,0.015,1.042,0.04,1.701c0.237,0.146,0.817,0.251,1.741,0.315c0.29,0.015,0.547,0.047,0.771,0.101
		c0.064,0.196,0.099,0.343,0.099,0.435c0,0.119-0.046,0.297-0.139,0.534c-0.541,0.133-1.107,0.23-1.701,0.297
		c-1.809,0.225-3.094,0.541-3.858,0.95c-0.369,0.211-0.626,0.315-0.771,0.315c-0.146,0-0.311-0.014-0.494-0.04
		c0.013-0.238,0.02-0.392,0.02-0.458c0-0.902-0.02-1.48-0.06-1.733c-0.197,0.105-0.441,0.246-0.731,0.419
		c-0.884,0.532-1.688,0.902-2.414,1.107c-0.726,0.206-1.557,0.311-2.492,0.311c-1.662,0-2.987-0.316-3.978-0.95
		c-1.464-0.923-2.477-2.03-3.037-3.323c-0.56-1.293-0.841-2.711-0.841-4.254C175.869,228.552,177.096,226.276,179.55,224.389z
		 M185.643,237.468c0.276,0.026,0.515,0.039,0.713,0.039c0.435,0,0.899-0.09,1.395-0.271s1.02-0.446,1.573-0.797
		c0.013-0.436,0.021-0.705,0.021-0.812c0-4.182-0.061-6.7-0.179-7.558c-0.157-1.147-0.594-2.031-1.307-2.651
		c-0.712-0.62-1.576-0.93-2.592-0.93c-0.58,0-1.131,0.104-1.651,0.316c-0.521,0.21-0.946,0.513-1.276,0.907
		c-0.487,0.579-0.856,1.238-1.106,1.977c-0.344,1.026-0.515,1.987-0.515,2.884c0,2.146,0.454,3.79,1.364,4.929
		C182.992,236.641,184.179,237.297,185.643,237.468z"/>
	<path fill="none" stroke="#0000FF" stroke-width="0.25" d="M213.99,235.844l0.455,0.298c0.119,0.092,0.191,0.204,0.218,0.336
		l0.021,0.099c-0.316,1.175-0.731,1.982-1.246,2.424c-0.516,0.442-1.153,0.663-1.918,0.663c-0.778,0-1.448-0.215-2.008-0.644
		c-0.562-0.429-1.072-1.185-1.533-2.266c-0.567,1.002-1.366,1.759-2.396,2.266c-1.027,0.508-2.289,0.762-3.778,0.762
		c-1.372,0-2.383-0.286-3.028-0.86c-0.646-0.573-0.969-1.329-0.969-2.266c0-0.436,0.096-0.877,0.287-1.325
		c0.189-0.448,0.501-0.894,0.93-1.336c0.428-0.441,1.117-0.926,2.067-1.454c0.145-0.079,0.646-0.303,1.504-0.672l4.926-1.979
		c0.04-0.502,0.06-1.011,0.06-1.523c0-1.781-0.218-2.994-0.652-3.641c-0.265-0.396-0.727-0.595-1.386-0.595
		c-0.658,0-1.266,0.126-1.819,0.376c-0.555,0.251-0.956,0.574-1.206,0.971c-0.187,0.29-0.345,0.838-0.477,1.642
		c-0.092,0.581-0.178,0.917-0.257,1.009c-0.198,0.251-0.558,0.479-1.078,0.684c-0.521,0.205-0.874,0.354-1.059,0.444
		c-0.712,0.345-1.279,0.516-1.701,0.516c-0.186-0.158-0.277-0.383-0.277-0.673c0-0.752,0.158-1.397,0.476-1.938
		c0.475-0.765,1.189-1.507,2.146-2.226c0.956-0.72,1.852-1.225,2.682-1.515c1.135-0.369,2.52-0.555,4.154-0.555
		c1.056,0,1.962,0.195,2.722,0.584c0.758,0.39,1.286,0.967,1.582,1.731c0.297,0.765,0.444,2.144,0.444,4.135l-0.04,3.265l0.04,2.395
		v0.612c0,0.556,0.075,0.935,0.225,1.139c0.148,0.205,0.341,0.307,0.573,0.307c0.144,0,0.267-0.039,0.37-0.118l0.594-0.931
		L213.99,235.844z M207.501,231.255c-0.752,0.251-1.6,0.67-2.542,1.257c-0.942,0.588-1.6,1.178-1.969,1.771
		c-0.265,0.436-0.396,0.97-0.396,1.603c0,0.567,0.171,1.036,0.514,1.405s0.739,0.554,1.188,0.554c0.738,0,1.365-0.211,1.881-0.633
		c0.697-0.566,1.106-1.02,1.227-1.354c0.118-0.337,0.178-1.289,0.178-2.859C207.58,232.416,207.554,231.836,207.501,231.255z"/>
	<path fill="none" stroke="#0000FF" stroke-width="0.25" d="M214.225,238.68c0.292-0.201,0.677-0.328,1.153-0.383
		c0.916-0.104,1.44-0.244,1.573-0.415c0.267-0.343,0.398-1.041,0.398-2.096v-5.574l-0.04-1.323v-3.992l-0.039-4.566v-0.791
		c0-1.08-0.087-1.878-0.259-2.392c-0.467-0.276-0.965-0.415-1.495-0.415c-0.319,0-0.618-0.033-0.897-0.1
		c-0.04-0.329-0.06-0.573-0.06-0.731c0-0.105,0.014-0.225,0.04-0.356c1.04-0.118,2.12-0.386,3.238-0.801
		c1.119-0.416,1.977-0.841,2.568-1.276l0.549-0.02c0.117,0,0.287,0.007,0.509,0.02c0.079,4.562,0.118,7.685,0.118,9.371
		c0,0.5-0.013,0.902-0.039,1.205v0.119l0.039,0.376v8.757l0.04,2.888v0.475c0,0.566,0.092,0.969,0.275,1.205
		c0.156,0.172,0.491,0.277,1.002,0.317c0.274,0.025,0.819,0.092,1.632,0.196c0.065,0.277,0.098,0.501,0.098,0.673
		c0,0.133-0.013,0.316-0.039,0.555l-1.562-0.071c-0.871-0.06-1.966-0.089-3.284-0.089l-0.731-0.019c-0.752,0-1.842,0.06-3.266,0.179
		h-1.443L214.225,238.68z"/>
</g>
<rect x="957.943" y="229.569" fill="none" stroke="#69BC45" stroke-width="0.25" stroke-miterlimit="10" width="36" height="31.582"/>
</svg>
