<?xml version="1.0" encoding="utf-8"?>
<!-- Generator: Adobe Illustrator 16.0.0, SVG Export Plug-In . SVG Version: 6.00 Build 0)  -->
<!DOCTYPE svg PUBLIC "-//W3C//DTD SVG 1.1//EN" "http://www.w3.org/Graphics/SVG/1.1/DTD/svg11.dtd">
<svg version="1.1" id="Layer_1" xmlns="http://www.w3.org/2000/svg" xmlns:xlink="http://www.w3.org/1999/xlink" x="0px" y="0px"
	 width="619.938px" height="523.559px" viewBox="0 0 619.938 523.559" enable-background="new 0 0 619.938 523.559"
	 xml:space="preserve">
<g transform="translate(225.17735050000002, 22.5000185) ">
	<polygon fill="none" stroke="#000000" stroke-width="0.25" points="-45.036,-4.5 -16.831,-4.5 -16.831,3.72 10.24,3.72 10.24,-4.5 
		27.815,-4.5 27.815,3.72 44.256,3.72 44.256,-4.5 61.83,-4.5 61.83,3.72 88.901,3.72 88.901,-4.5 117.107,-4.5 117.107,22.996 
		108.886,22.996 108.886,49.359 117.107,49.359 117.107,66.933 108.886,66.933 108.886,83.374 117.107,83.374 117.107,100.948 
		108.886,100.948 108.886,117.39 117.107,117.39 117.107,134.964 108.886,134.964 108.886,151.406 117.107,151.406 117.107,168.981 
		108.886,168.981 108.886,195.342 117.107,195.342 117.107,222.838 88.901,222.838 88.901,214.618 61.83,214.618 61.83,222.838 
		44.256,222.838 44.256,214.618 27.815,214.618 27.815,222.838 10.24,222.838 10.24,214.618 -16.831,214.618 -16.831,222.838 
		-45.036,222.838 -45.036,195.342 -36.815,195.342 -36.815,168.981 -45.036,168.981 -45.036,151.406 -36.815,151.406 
		-36.815,134.964 -45.036,134.964 -45.036,117.39 -36.815,117.39 -36.815,100.948 -45.036,100.948 -45.036,83.374 -36.815,83.374 
		-36.815,66.933 -45.036,66.933 -45.036,49.359 -36.815,49.359 -36.815,22.996 -45.036,22.996 	"/>
</g>
<g transform="translate(427.85468249999997, 22.5000185) ">
	<polygon fill="none" stroke="#000000" stroke-width="0.25" points="-77.351,-4.5 -58.075,-4.5 -58.075,3.72 -31.713,3.72 
		-31.713,-4.5 -14.138,-4.5 -14.138,3.72 2.303,3.72 2.303,-4.5 19.878,-4.5 19.878,3.72 36.319,3.72 36.319,-4.5 53.894,-4.5 
		53.894,3.72 70.335,3.72 70.335,-4.5 87.91,-4.5 87.91,3.72 104.35,3.72 104.35,-4.5 121.925,-4.5 121.925,3.72 148.288,3.72 
		148.288,-4.5 167.563,-4.5 167.563,22.429 175.784,22.429 175.784,49.925 167.563,49.925 167.563,66.366 175.784,66.366 
		175.784,83.941 167.563,83.941 167.563,100.382 175.784,100.382 175.784,117.956 167.563,117.956 167.563,134.398 175.784,134.398 
		175.784,151.972 167.563,151.972 167.563,168.413 175.784,168.413 175.784,195.909 167.563,195.909 167.563,222.838 
		148.288,222.838 148.288,214.618 121.925,214.618 121.925,222.838 104.35,222.838 104.35,214.618 87.91,214.618 87.91,222.838 
		70.335,222.838 70.335,214.618 53.894,214.618 53.894,222.838 36.319,222.838 36.319,214.618 19.878,214.618 19.878,222.838 
		2.303,222.838 2.303,214.618 -14.138,214.618 -14.138,222.838 -31.713,222.838 -31.713,214.618 -58.075,214.618 -58.075,222.838 
		-77.351,222.838 -77.351,195.909 -85.571,195.909 -85.571,168.413 -77.351,168.413 -77.351,151.972 -85.571,151.972 
		-85.571,134.398 -77.351,134.398 -77.351,117.956 -85.571,117.956 -85.571,100.382 -77.351,100.382 -77.351,83.941 -85.571,83.941 
		-85.571,66.366 -77.351,66.366 -77.351,49.925 -85.571,49.925 -85.571,22.429 -77.351,22.429 	"/>
</g>
<g transform="translate(225.17735050000002, 306.6734805) ">
	<polygon fill="none" stroke="#000000" stroke-width="0.25" points="-36.815,-53.115 -17.397,-53.115 -17.397,-61.335 
		10.807,-61.335 10.807,-53.115 27.248,-53.115 27.248,-61.335 44.822,-61.335 44.822,-53.115 61.264,-53.115 61.264,-61.335 
		89.468,-61.335 89.468,-53.115 108.886,-53.115 108.886,-34.406 117.107,-34.406 117.107,-6.91 108.886,-6.91 108.886,9.531 
		117.107,9.531 117.107,27.106 108.886,27.106 108.886,43.546 117.107,43.546 117.107,61.122 108.886,61.122 108.886,77.562 
		117.107,77.562 117.107,95.137 108.886,95.137 108.886,111.578 117.107,111.578 117.107,129.153 108.886,129.153 108.886,145.594 
		117.107,145.594 117.107,173.09 108.886,173.09 108.886,191.798 89.468,191.798 89.468,200.019 61.264,200.019 61.264,191.798 
		44.822,191.798 44.822,200.019 27.248,200.019 27.248,191.798 10.807,191.798 10.807,200.019 -17.397,200.019 -17.397,191.798 
		-36.815,191.798 -36.815,173.09 -45.036,173.09 -45.036,145.594 -36.815,145.594 -36.815,129.153 -45.036,129.153 -45.036,111.578 
		-36.815,111.578 -36.815,95.137 -45.036,95.137 -45.036,77.562 -36.815,77.562 -36.815,61.122 -45.036,61.122 -45.036,43.546 
		-36.815,43.546 -36.815,27.106 -45.036,27.106 -45.036,9.531 -36.815,9.531 -36.815,-6.91 -45.036,-6.91 -45.036,-34.406 
		-36.815,-34.406 	"/>
</g>
<circle fill="none" stroke="#EC1E24" stroke-width="0.25" stroke-miterlimit="10" cx="471.32" cy="170.829" r="11.338"/>
<g transform="translate(427.85468249999997, 22.5000185) ">
	<polygon fill="none" stroke="#000000" stroke-width="0.25" points="-77.351,222.838 -58.075,222.838 -58.075,231.058 
		-31.713,231.058 -31.713,222.838 -14.138,222.838 -14.138,231.058 2.303,231.058 2.303,222.838 19.878,222.838 19.878,231.058 
		36.319,231.058 36.319,222.838 53.894,222.838 53.894,231.058 70.335,231.058 70.335,222.838 87.91,222.838 87.91,231.058 
		104.35,231.058 104.35,222.838 121.925,222.838 121.925,231.058 148.288,231.058 148.288,222.838 167.563,222.838 167.563,249.767 
		175.784,249.767 175.784,277.263 167.563,277.263 167.563,293.704 175.784,293.704 175.784,311.279 167.563,311.279 
		167.563,327.72 175.784,327.72 175.784,345.294 167.563,345.294 167.563,361.736 175.784,361.736 175.784,379.31 167.563,379.31 
		167.563,395.751 175.784,395.751 175.784,423.247 167.563,423.247 167.563,450.176 148.288,450.176 148.288,441.956 
		121.925,441.956 121.925,450.176 104.35,450.176 104.35,441.956 87.91,441.956 87.91,450.176 70.335,450.176 70.335,441.956 
		53.894,441.956 53.894,450.176 36.319,450.176 36.319,441.956 19.878,441.956 19.878,450.176 2.303,450.176 2.303,441.956 
		-14.138,441.956 -14.138,450.176 -31.713,450.176 -31.713,441.956 -58.075,441.956 -58.075,450.176 -77.351,450.176 
		-77.351,423.247 -85.571,423.247 -85.571,395.751 -77.351,395.751 -77.351,379.31 -85.571,379.31 -85.571,361.736 -77.351,361.736 
		-77.351,345.294 -85.571,345.294 -85.571,327.72 -77.351,327.72 -77.351,311.279 -85.571,311.279 -85.571,293.704 -77.351,293.704 
		-77.351,277.263 -85.571,277.263 -85.571,249.767 -77.351,249.767 	"/>
</g>
<circle fill="none" stroke="#EC1E24" stroke-width="0.25" stroke-miterlimit="10" cx="471.32" cy="398.167" r="11.339"/>
<path fill="none" stroke="#EC1E24" stroke-width="0.25" stroke-miterlimit="10" d="M491.302,173.867
	c0,0.671-0.634,1.215-1.417,1.215l0,0c-0.782,0-1.417-0.544-1.417-1.215v-6.075c0-0.671,0.635-1.215,1.417-1.215l0,0
	c0.783,0,1.417,0.544,1.417,1.215V173.867z"/>
<path fill="none" stroke="#EC1E24" stroke-width="0.25" stroke-miterlimit="10" d="M491.302,401.204c0,0.67-0.634,1.215-1.417,1.215
	l0,0c-0.782,0-1.417-0.545-1.417-1.215v-6.075c0-0.671,0.635-1.215,1.417-1.215l0,0c0.783,0,1.417,0.544,1.417,1.215V401.204z"/>
</svg>
